<?xml version="1.0" standalone="no"?>
<!DOCTYPE svg PUBLIC "-//W3C//DTD SVG 20010904//EN"
 "http://www.w3.org/TR/2001/REC-SVG-20010904/DTD/svg10.dtd">
<svg version="1.0" xmlns="http://www.w3.org/2000/svg"
 width="750.000000pt" height="750.000000pt" viewBox="0 0 750.000000 750.000000"
 preserveAspectRatio="xMidYMid meet">
<metadata>
Created by potrace 1.14, written by Peter Selinger 2001-2017
</metadata>
<g transform="translate(0.000000,750.000000) scale(0.100000,-0.100000)"
fill="#000000" stroke="none">
<path d="M5564 7485 c-13 -33 4 -45 61 -45 l55 0 0 -40 0 -40 40 0 c40 0 40 0
40 -39 0 -29 -5 -40 -18 -44 -14 -3 -19 -13 -18 -38 1 -31 4 -34 34 -37 39 -4
41 -8 44 -92 3 -52 6 -65 21 -68 14 -3 17 4 17 37 l0 41 40 0 c40 0 40 0 40
-39 0 -29 -5 -40 -18 -43 -27 -7 -29 -68 -2 -75 16 -4 20 -14 20 -44 l0 -39
80 0 80 0 0 -40 0 -40 40 0 40 0 0 -40 0 -40 40 0 40 0 0 -40 0 -40 40 0 c40
0 40 0 40 -38 0 -21 -5 -43 -10 -48 -6 -6 -10 -41 -8 -80 l3 -69 48 -3 47 -3
0 -40 c0 -39 0 -39 40 -39 l40 0 0 -40 0 -40 40 0 c40 0 40 0 40 -39 0 -31 -4
-40 -21 -44 -19 -5 -20 -11 -16 -74 8 -107 20 -158 37 -158 18 0 26 53 11 68
-6 6 -11 28 -11 49 0 38 0 38 40 38 40 0 40 0 40 -39 0 -22 -4 -43 -10 -46 -5
-3 -10 -19 -10 -35 0 -16 5 -32 10 -35 6 -4 10 10 10 34 l0 41 40 0 40 0 0
-40 0 -40 40 0 40 0 0 -80 0 -80 40 0 c40 0 40 0 40 -39 0 -30 -4 -40 -20 -44
-19 -5 -20 -12 -18 -79 3 -70 4 -73 28 -73 20 0 26 6 28 29 2 16 -1 33 -7 39
-6 6 -11 28 -11 49 0 38 0 38 40 38 40 0 40 0 40 -39 0 -22 -4 -43 -10 -46 -5
-3 -10 -19 -10 -35 0 -16 5 -32 10 -35 6 -3 10 -42 10 -86 l0 -79 55 0 c35 0
57 -5 60 -12 3 -7 6 -42 7 -78 3 -52 6 -65 21 -68 15 -3 17 6 17 77 l0 81 40
0 40 0 0 -40 0 -40 40 0 40 0 0 -80 0 -80 40 0 40 0 0 -40 0 -40 70 0 70 0 0
1230 0 1230 -965 0 c-849 0 -966 -2 -971 -15z"/>
<path d="M1144 6947 c-9 -25 0 -62 16 -62 10 0 15 10 15 34 0 36 -21 54 -31
28z"/>
<path d="M1704 6627 c-9 -25 0 -62 16 -62 10 0 15 10 15 34 0 36 -21 54 -31
28z"/>
<path d="M1324 6547 c-2 -7 -3 -42 -2 -77 2 -52 6 -65 21 -68 15 -3 17 6 17
77 0 66 -3 81 -15 81 -9 0 -18 -6 -21 -13z"/>
<path d="M1520 6520 c0 -34 3 -41 18 -38 12 2 17 13 17 38 0 25 -5 36 -17 38
-15 3 -18 -4 -18 -38z"/>
<path d="M6205 6548 c-3 -8 -4 -43 -3 -78 3 -62 4 -65 28 -65 24 0 25 2 25 75
0 70 -1 75 -23 78 -12 2 -24 -3 -27 -10z"/>
<path d="M3200 6440 c0 -34 3 -41 18 -38 12 2 17 13 17 38 0 25 -5 36 -17 38
-15 3 -18 -4 -18 -38z"/>
<path d="M1040 6360 c0 -34 3 -41 18 -38 12 2 17 13 17 38 0 25 -5 36 -17 38
-15 3 -18 -4 -18 -38z"/>
<path d="M1704 6387 c-9 -25 0 -62 16 -62 10 0 15 10 15 34 0 36 -21 54 -31
28z"/>
<path d="M1407 6313 c-11 -21 -1 -68 16 -71 14 -3 17 4 17 37 0 29 -4 41 -14
41 -8 0 -17 -3 -19 -7z"/>
<path d="M2927 6313 c-11 -21 -1 -68 16 -71 14 -3 17 4 17 37 0 29 -4 41 -14
41 -8 0 -17 -3 -19 -7z"/>
<path d="M3120 6280 c0 -34 3 -41 18 -38 12 2 17 13 17 38 0 25 -5 36 -17 38
-15 3 -18 -4 -18 -38z"/>
<path d="M607 6233 c-11 -21 -1 -68 16 -71 14 -3 17 4 17 37 0 29 -4 41 -14
41 -8 0 -17 -3 -19 -7z"/>
<path d="M2184 6227 c-9 -25 0 -62 16 -62 10 0 15 10 15 34 0 36 -21 54 -31
28z"/>
<path d="M904 6147 c-9 -25 0 -62 16 -62 10 0 15 10 15 34 0 36 -21 54 -31 28z"/>
<path d="M1887 6153 c-11 -21 -1 -68 16 -71 14 -3 17 4 17 37 0 29 -4 41 -14
41 -8 0 -17 -3 -19 -7z"/>
<path d="M2367 6153 c-11 -21 -1 -68 16 -71 14 -3 17 4 17 37 0 29 -4 41 -14
41 -8 0 -17 -3 -19 -7z"/>
<path d="M6424 6147 c-9 -25 0 -62 16 -62 10 0 15 10 15 34 0 36 -21 54 -31
28z"/>
<path d="M824 6067 c-9 -25 0 -62 16 -62 10 0 15 10 15 34 0 36 -21 54 -31 28z"/>
<path d="M1407 6073 c-11 -21 -1 -68 16 -71 14 -3 17 4 17 37 0 29 -4 41 -14
41 -8 0 -17 -3 -19 -7z"/>
<path d="M2923 6064 c-3 -9 -1 -31 5 -48 7 -18 12 -44 12 -59 0 -14 5 -29 10
-32 6 -4 10 23 10 74 0 66 -3 81 -15 81 -9 0 -18 -7 -22 -16z"/>
<path d="M3644 6067 c-2 -7 -3 -42 -2 -77 2 -52 6 -65 21 -68 15 -3 17 6 17
77 0 66 -3 81 -15 81 -9 0 -18 -6 -21 -13z"/>
<path d="M1784 5987 c-9 -25 0 -62 16 -62 10 0 15 10 15 34 0 36 -21 54 -31
28z"/>
<path d="M2367 5993 c-11 -21 -1 -68 16 -71 14 -3 17 4 17 37 0 29 -4 41 -14
41 -8 0 -17 -3 -19 -7z"/>
<path d="M2480 5920 c0 -72 2 -81 18 -78 14 3 17 15 17 78 0 63 -3 75 -17 78
-16 3 -18 -6 -18 -78z"/>
<path d="M2664 5987 c-3 -8 -4 -43 -2 -78 2 -49 7 -64 18 -64 12 0 15 15 15
74 0 51 -4 76 -12 78 -7 3 -15 -2 -19 -10z"/>
<path d="M2880 5960 c0 -25 4 -39 10 -35 6 3 10 19 10 35 0 16 -4 32 -10 35
-6 4 -10 -10 -10 -35z"/>
<path d="M3487 5993 c-11 -21 -1 -68 16 -71 14 -3 17 4 17 37 0 29 -4 41 -14
41 -8 0 -17 -3 -19 -7z"/>
<path d="M6480 5960 c0 -25 4 -39 10 -35 6 3 10 19 10 35 0 16 -4 32 -10 35
-6 4 -10 -10 -10 -35z"/>
<path d="M1600 5880 c0 -34 3 -41 18 -38 12 2 17 13 17 38 0 25 -5 36 -17 38
-15 3 -18 -4 -18 -38z"/>
<path d="M1887 5913 c-11 -21 -1 -68 16 -71 14 -3 17 4 17 37 0 29 -4 41 -14
41 -8 0 -17 -3 -19 -7z"/>
<path d="M3040 5880 c0 -34 3 -41 18 -38 12 2 17 13 17 38 0 25 -5 36 -17 38
-15 3 -18 -4 -18 -38z"/>
<path d="M1007 5833 c-11 -21 -1 -68 16 -71 14 -3 17 4 17 37 0 29 -4 41 -14
41 -8 0 -17 -3 -19 -7z"/>
<path d="M1407 5833 c-11 -21 -1 -68 16 -71 14 -3 17 4 17 37 0 29 -4 41 -14
41 -8 0 -17 -3 -19 -7z"/>
<path d="M1704 5827 c-9 -25 0 -62 16 -62 10 0 15 10 15 34 0 36 -21 54 -31
28z"/>
<path d="M2847 5833 c-11 -21 -1 -68 16 -71 14 -3 17 4 17 37 0 29 -4 41 -14
41 -8 0 -17 -3 -19 -7z"/>
<path d="M4203 5824 c-3 -9 -1 -31 5 -48 7 -18 12 -62 12 -99 0 -36 5 -69 10
-72 6 -4 10 37 10 114 0 102 -2 121 -15 121 -9 0 -18 -7 -22 -16z"/>
<path d="M1600 5701 c0 -56 -4 -103 -10 -106 -5 -3 -10 -19 -10 -35 0 -16 5
-32 10 -35 6 -4 10 -63 10 -146 l0 -139 40 0 c33 0 40 4 40 19 0 10 -9 21 -19
24 -19 5 -20 16 -21 227 0 122 -2 227 -3 233 -1 6 8 13 21 15 14 2 22 10 22
23 0 16 -7 19 -40 19 l-40 0 0 -99z"/>
<path d="M1087 5753 c-11 -21 -1 -68 16 -71 14 -3 17 4 17 37 0 29 -4 41 -14
41 -8 0 -17 -3 -19 -7z"/>
<path d="M1326 5748 c-2 -7 -9 -31 -15 -53 -17 -56 -11 -170 9 -170 12 0 16
16 18 70 2 39 7 74 13 80 5 5 9 26 9 47 0 27 -4 38 -15 38 -9 0 -17 -6 -19
-12z"/>
<path d="M2080 5720 c0 -34 3 -41 18 -38 12 2 17 13 17 38 0 25 -5 36 -17 38
-15 3 -18 -4 -18 -38z"/>
<path d="M2767 5753 c-11 -21 -1 -68 16 -71 14 -3 17 4 17 37 0 29 -4 41 -14
41 -8 0 -17 -3 -19 -7z"/>
<path d="M2960 5680 c0 -72 2 -81 18 -78 14 3 17 15 17 78 0 63 -3 75 -17 78
-16 3 -18 -6 -18 -78z"/>
<path d="M3040 5720 c0 -34 3 -41 18 -38 12 2 17 13 17 38 0 25 -5 36 -17 38
-15 3 -18 -4 -18 -38z"/>
<path d="M3600 5720 c0 -34 3 -41 18 -38 12 2 17 13 17 38 0 25 -5 36 -17 38
-15 3 -18 -4 -18 -38z"/>
<path d="M3967 5753 c-11 -21 -1 -68 16 -71 14 -3 17 4 17 37 0 29 -4 41 -14
41 -8 0 -17 -3 -19 -7z"/>
<path d="M4125 5748 c-3 -8 -4 -43 -3 -78 3 -62 4 -65 28 -65 24 0 25 2 25 75
0 70 -1 75 -23 78 -12 2 -24 -3 -27 -10z"/>
<path d="M1200 5640 c0 -34 3 -41 18 -38 12 2 17 13 17 38 0 25 -5 36 -17 38
-15 3 -18 -4 -18 -38z"/>
<path d="M1887 5673 c-11 -21 -1 -68 16 -71 14 -3 17 4 17 37 0 29 -4 41 -14
41 -8 0 -17 -3 -19 -7z"/>
<path d="M2284 5667 c-2 -7 -3 -42 -2 -77 3 -62 4 -65 28 -65 22 0 25 5 28 38
2 21 -1 37 -7 37 -6 0 -11 9 -11 20 0 11 6 20 14 20 22 0 46 -40 46 -77 0 -17
5 -35 10 -38 6 -4 10 17 10 54 0 42 -4 61 -13 61 -7 0 -18 9 -25 20 -14 23
-70 28 -78 7z"/>
<path d="M3224 5667 c-9 -25 0 -62 16 -62 10 0 15 10 15 34 0 36 -21 54 -31
28z"/>
<path d="M367 5593 c-11 -21 -1 -68 16 -71 14 -3 17 4 17 37 0 29 -4 41 -14
41 -8 0 -17 -3 -19 -7z"/>
<path d="M1407 5593 c-11 -21 -1 -68 16 -71 14 -3 17 4 17 37 0 29 -4 41 -14
41 -8 0 -17 -3 -19 -7z"/>
<path d="M1520 5560 c0 -25 4 -39 10 -35 6 3 10 19 10 35 0 16 -4 32 -10 35
-6 4 -10 -10 -10 -35z"/>
<path d="M1704 5587 c-9 -25 0 -62 16 -62 10 0 15 10 15 34 0 36 -21 54 -31
28z"/>
<path d="M2000 5560 c0 -34 3 -41 18 -38 12 2 17 13 17 38 0 25 -5 36 -17 38
-15 3 -18 -4 -18 -38z"/>
<path d="M2104 5587 c-9 -25 0 -62 16 -62 10 0 15 10 15 34 0 36 -21 54 -31
28z"/>
<path d="M2687 5593 c-11 -21 -1 -68 16 -71 14 -3 17 4 17 37 0 29 -4 41 -14
41 -8 0 -17 -3 -19 -7z"/>
<path d="M3600 5480 c0 -110 2 -121 18 -118 15 3 17 17 17 118 0 101 -2 115
-17 118 -16 3 -18 -8 -18 -118z"/>
<path d="M4320 5560 c0 -34 3 -41 18 -38 12 2 17 13 17 38 0 25 -5 36 -17 38
-15 3 -18 -4 -18 -38z"/>
<path d="M1200 5480 c0 -34 3 -41 18 -38 12 2 17 13 17 38 0 25 -5 36 -17 38
-15 3 -18 -4 -18 -38z"/>
<path d="M1807 5513 c-11 -21 -1 -68 16 -71 14 -3 17 4 17 37 0 29 -4 41 -14
41 -8 0 -17 -3 -19 -7z"/>
<path d="M2587 5514 c-13 -13 -8 -312 6 -326 6 -7 12 -24 12 -38 0 -16 6 -26
18 -28 14 -3 17 4 17 35 0 22 -4 43 -10 49 -5 5 -11 76 -12 158 -3 140 -9 171
-31 150z"/>
<path d="M3144 5507 c-9 -25 0 -62 16 -62 10 0 15 10 15 34 0 36 -21 54 -31
28z"/>
<path d="M3244 5506 c-3 -7 -4 -60 -2 -117 3 -89 5 -104 21 -107 15 -3 17 8
17 117 0 102 -2 121 -15 121 -9 0 -18 -6 -21 -14z"/>
<path d="M3327 5513 c-11 -21 -1 -68 16 -71 14 -3 17 4 17 37 0 29 -4 41 -14
41 -8 0 -17 -3 -19 -7z"/>
<path d="M3704 5507 c-3 -8 -4 -43 -2 -78 2 -49 7 -64 18 -64 12 0 15 15 15
74 0 51 -4 76 -12 78 -7 3 -15 -2 -19 -10z"/>
<path d="M4080 5480 c0 -25 4 -39 10 -35 6 3 10 19 10 35 0 16 -4 32 -10 35
-6 4 -10 -10 -10 -35z"/>
<path d="M4147 5513 c-11 -10 -8 -61 3 -68 6 -4 10 10 10 34 0 42 -2 46 -13
34z"/>
<path d="M4425 5508 c-3 -8 -4 -61 -3 -119 2 -84 6 -104 18 -104 12 0 15 19
15 114 0 83 -3 115 -12 118 -7 3 -15 -2 -18 -9z"/>
<path d="M1887 5433 c-11 -21 -1 -68 16 -71 14 -3 17 4 17 37 0 29 -4 41 -14
41 -8 0 -17 -3 -19 -7z"/>
<path d="M2000 5400 c0 -34 3 -41 18 -38 12 2 17 13 17 38 0 25 -5 36 -17 38
-15 3 -18 -4 -18 -38z"/>
<path d="M3064 5427 c-9 -25 0 -62 16 -62 10 0 15 10 15 34 0 36 -21 54 -31
28z"/>
<path d="M3967 5433 c-11 -21 -1 -68 16 -71 14 -3 17 4 17 37 0 29 -4 41 -14
41 -8 0 -17 -3 -19 -7z"/>
<path d="M4264 5427 c-9 -25 0 -62 16 -62 10 0 15 10 15 34 0 36 -21 54 -31
28z"/>
<path d="M984 5347 c-9 -25 0 -62 16 -62 10 0 15 10 15 34 0 36 -21 54 -31 28z"/>
<path d="M1407 5353 c-11 -21 -1 -68 16 -71 14 -3 17 4 17 37 0 29 -4 41 -14
41 -8 0 -17 -3 -19 -7z"/>
<path d="M1707 5354 c-4 -4 -7 -164 -7 -355 0 -221 -4 -350 -10 -354 -5 -3
-10 -24 -10 -46 0 -33 3 -40 18 -37 11 2 17 12 17 28 0 14 6 31 13 38 9 11 12
94 10 370 -3 339 -6 380 -31 356z"/>
<path d="M2400 5320 c0 -34 3 -41 18 -38 12 2 17 13 17 38 0 25 -5 36 -17 38
-15 3 -18 -4 -18 -38z"/>
<path d="M3144 5347 c-9 -25 0 -62 16 -62 10 0 15 10 15 34 0 36 -21 54 -31
28z"/>
<path d="M3520 5323 c0 -22 4 -43 10 -49 5 -5 11 -77 12 -159 3 -125 5 -150
18 -150 13 0 15 24 14 160 0 171 -10 228 -37 233 -14 3 -17 -4 -17 -35z"/>
<path d="M4160 5320 c0 -34 3 -41 18 -38 12 2 17 13 17 38 0 25 -5 36 -17 38
-15 3 -18 -4 -18 -38z"/>
<path d="M880 5240 c0 -34 3 -41 18 -38 12 2 17 13 17 38 0 25 -5 36 -17 38
-15 3 -18 -4 -18 -38z"/>
<path d="M1487 5273 c-11 -21 -1 -68 16 -71 14 -3 17 4 17 37 0 29 -4 41 -14
41 -8 0 -17 -3 -19 -7z"/>
<path d="M2204 5267 c-2 -7 -3 -42 -2 -77 2 -52 6 -65 21 -68 15 -3 17 6 17
77 0 66 -3 81 -15 81 -9 0 -18 -6 -21 -13z"/>
<path d="M2504 5267 c-9 -25 0 -62 16 -62 10 0 15 10 15 34 0 36 -21 54 -31
28z"/>
<path d="M2684 5267 c-2 -7 -3 -42 -2 -77 2 -52 6 -65 21 -68 15 -3 17 6 17
77 0 66 -3 81 -15 81 -9 0 -18 -6 -21 -13z"/>
<path d="M2960 5240 c0 -34 3 -41 18 -38 12 2 17 13 17 38 0 25 -5 36 -17 38
-15 3 -18 -4 -18 -38z"/>
<path d="M3440 5240 c0 -34 3 -41 18 -38 12 2 17 13 17 38 0 25 -5 36 -17 38
-15 3 -18 -4 -18 -38z"/>
<path d="M3624 5267 c-3 -8 -4 -43 -2 -78 2 -49 7 -64 18 -64 12 0 15 15 15
74 0 51 -4 76 -12 78 -7 3 -15 -2 -19 -10z"/>
<path d="M3807 5273 c-11 -21 -1 -68 16 -71 14 -3 17 4 17 37 0 29 -4 41 -14
41 -8 0 -17 -3 -19 -7z"/>
<path d="M4264 5267 c-3 -8 -4 -43 -2 -78 2 -49 7 -64 18 -64 12 0 15 15 15
74 0 51 -4 76 -12 78 -7 3 -15 -2 -19 -10z"/>
<path d="M984 5187 c-9 -25 0 -62 16 -62 10 0 15 10 15 34 0 36 -21 54 -31 28z"/>
<path d="M1304 5187 c-9 -25 0 -62 16 -62 10 0 15 10 15 34 0 36 -21 54 -31
28z"/>
<path d="M1600 5120 c0 -72 2 -81 18 -78 11 2 17 13 18 33 1 17 3 50 5 75 3
40 1 45 -19 48 -21 3 -22 1 -22 -78z"/>
<path d="M2000 5000 c0 -187 1 -201 18 -198 11 2 17 13 17 31 -1 15 3 27 8 27
5 0 6 28 3 63 -3 34 -6 109 -8 167 -3 90 -5 105 -20 108 -17 3 -18 -11 -18
-198z"/>
<path d="M2320 5160 c0 -34 3 -41 18 -38 12 2 17 13 17 38 0 25 -5 36 -17 38
-15 3 -18 -4 -18 -38z"/>
<path d="M2880 5160 c0 -34 3 -41 18 -38 12 2 17 13 17 38 0 25 -5 36 -17 38
-15 3 -18 -4 -18 -38z"/>
<path d="M3200 5162 c0 -30 -4 -41 -18 -45 -26 -6 -25 -70 1 -75 14 -3 17 4
17 37 0 22 5 43 10 46 6 3 10 19 10 35 0 16 -4 32 -10 35 -6 4 -10 -10 -10
-33z"/>
<path d="M3266 5188 c-7 -20 -18 -91 -20 -118 -1 -16 5 -26 17 -28 15 -3 17 6
17 77 0 75 -5 99 -14 69z"/>
<path d="M4525 5190 c-4 -6 -3 -30 1 -53 4 -23 6 -54 5 -68 -1 -16 4 -29 13
-32 11 -4 16 -19 16 -42 0 -29 3 -36 18 -33 25 5 26 69 1 75 -17 5 -19 16 -19
84 0 62 -3 79 -14 79 -8 0 -18 -5 -21 -10z"/>
<path d="M4720 5160 c0 -34 3 -41 18 -38 12 2 17 13 17 38 0 25 -5 36 -17 38
-15 3 -18 -4 -18 -38z"/>
<path d="M7167 5193 c-11 -21 -1 -68 16 -71 14 -3 17 4 17 37 0 29 -4 41 -14
41 -8 0 -17 -3 -19 -7z"/>
<path d="M1760 5100 c0 -17 7 -20 40 -20 33 0 40 3 40 20 0 17 -7 20 -40 20
-33 0 -40 -3 -40 -20z"/>
<path d="M3727 5113 c-11 -21 -1 -68 16 -71 14 -3 17 4 17 37 0 29 -4 41 -14
41 -8 0 -17 -3 -19 -7z"/>
<path d="M4080 5080 c0 -34 3 -41 18 -38 12 2 17 13 17 38 0 25 -5 36 -17 38
-15 3 -18 -4 -18 -38z"/>
<path d="M4184 5107 c-9 -25 0 -62 16 -62 10 0 15 10 15 34 0 36 -21 54 -31
28z"/>
<path d="M880 4960 c0 -72 2 -81 18 -78 14 3 17 15 17 78 0 63 -3 75 -17 78
-16 3 -18 -6 -18 -78z"/>
<path d="M1520 5000 c0 -34 3 -41 18 -38 12 2 17 13 17 38 0 25 -5 36 -17 38
-15 3 -18 -4 -18 -38z"/>
<path d="M2204 5027 c-2 -7 -3 -42 -2 -77 2 -52 6 -65 21 -68 15 -3 17 6 17
77 0 66 -3 81 -15 81 -9 0 -18 -6 -21 -13z"/>
<path d="M2400 5000 c0 -34 3 -41 18 -38 12 2 17 13 17 38 0 25 -5 36 -17 38
-15 3 -18 -4 -18 -38z"/>
<path d="M2504 5027 c-9 -25 0 -62 16 -62 10 0 15 10 15 34 0 36 -21 54 -31
28z"/>
<path d="M2800 5000 c0 -34 3 -41 18 -38 12 2 17 13 17 38 0 25 -5 36 -17 38
-15 3 -18 -4 -18 -38z"/>
<path d="M2880 5000 c0 -34 3 -41 18 -38 12 2 17 13 17 38 0 25 -5 36 -17 38
-15 3 -18 -4 -18 -38z"/>
<path d="M3360 5000 c0 -34 3 -41 18 -38 12 2 17 13 17 38 0 25 -5 36 -17 38
-15 3 -18 -4 -18 -38z"/>
<path d="M3840 5000 c0 -25 4 -39 10 -35 6 3 10 19 10 35 0 16 -4 32 -10 35
-6 4 -10 -10 -10 -35z"/>
<path d="M3904 5026 c-3 -8 -4 -25 -2 -38 2 -17 9 -23 28 -23 22 0 25 4 25 35
0 29 -4 36 -23 38 -13 2 -24 -3 -28 -12z"/>
<path d="M4287 5033 c-11 -21 -1 -68 16 -71 14 -3 17 4 17 37 0 29 -4 41 -14
41 -8 0 -17 -3 -19 -7z"/>
<path d="M4364 5027 c-2 -7 -3 -42 -2 -77 3 -62 4 -65 28 -65 20 0 26 6 28 29
2 16 -1 33 -7 39 -6 6 -11 28 -11 49 0 27 -4 38 -15 38 -9 0 -18 -6 -21 -13z"/>
<path d="M7280 5003 c0 -22 4 -43 9 -48 5 -6 11 -23 13 -40 2 -19 9 -30 18
-30 30 0 8 147 -23 153 -14 3 -17 -4 -17 -35z"/>
<path d="M560 4920 c0 -34 3 -41 18 -38 12 2 17 13 17 38 0 25 -5 36 -17 38
-15 3 -18 -4 -18 -38z"/>
<path d="M1280 4920 c0 -34 3 -41 18 -38 12 2 17 13 17 38 0 25 -5 36 -17 38
-15 3 -18 -4 -18 -38z"/>
<path d="M1404 4947 c-2 -7 -3 -42 -2 -77 2 -52 6 -65 21 -68 15 -3 17 6 17
77 0 66 -3 81 -15 81 -9 0 -18 -6 -21 -13z"/>
<path d="M2604 4947 c-2 -7 -3 -42 -2 -77 2 -52 6 -65 21 -68 15 -3 17 6 17
77 0 66 -3 81 -15 81 -9 0 -18 -6 -21 -13z"/>
<path d="M4024 4947 c-9 -25 0 -62 16 -62 10 0 15 10 15 34 0 36 -21 54 -31
28z"/>
<path d="M4184 4947 c-9 -25 0 -62 16 -62 10 0 15 10 15 34 0 36 -21 54 -31
28z"/>
<path d="M4467 4953 c-11 -10 -8 -61 3 -68 6 -4 10 10 10 34 0 42 -2 46 -13
34z"/>
<path d="M7387 4954 c-10 -11 -8 -63 3 -84 5 -10 11 -46 12 -81 l3 -64 35 0
c33 0 35 2 36 35 1 18 6 36 13 38 7 2 11 32 11 83 0 51 -4 78 -10 74 -5 -3
-10 -40 -10 -81 0 -67 -2 -74 -20 -74 -16 0 -20 7 -20 38 0 21 -4 42 -9 48 -5
5 -11 22 -13 38 -3 29 -18 43 -31 30z"/>
<path d="M1807 4873 c-11 -21 -1 -68 16 -71 14 -3 17 4 17 37 0 29 -4 41 -14
41 -8 0 -17 -3 -19 -7z"/>
<path d="M2880 4840 c0 -34 3 -41 18 -38 12 2 17 13 17 38 0 25 -5 36 -17 38
-15 3 -18 -4 -18 -38z"/>
<path d="M3089 4878 c0 -2 -3 -18 -6 -36 -3 -28 -1 -34 16 -39 30 -8 30 -78 1
-86 -20 -5 -21 -12 -18 -119 3 -98 5 -113 21 -116 15 -3 17 8 17 117 0 69 4
122 10 126 6 3 10 19 10 35 0 16 -4 32 -10 35 -5 3 -10 24 -10 46 0 28 -4 39
-15 39 -8 0 -15 -1 -16 -2z"/>
<path d="M3464 4867 c-9 -25 0 -62 16 -62 10 0 15 10 15 34 0 36 -21 54 -31
28z"/>
<path d="M3729 4878 c0 -2 -3 -18 -6 -36 -3 -28 -1 -34 16 -39 17 -4 21 -13
21 -45 0 -23 4 -37 10 -33 6 3 10 19 10 35 0 16 -4 32 -10 35 -5 3 -10 24 -10
46 0 28 -4 39 -15 39 -8 0 -15 -1 -16 -2z"/>
<path d="M4560 4840 c0 -34 3 -41 18 -38 12 2 17 13 17 38 0 25 -5 36 -17 38
-15 3 -18 -4 -18 -38z"/>
<path d="M560 4760 c0 -34 3 -41 18 -38 12 2 17 13 17 38 0 25 -5 36 -17 38
-15 3 -18 -4 -18 -38z"/>
<path d="M1487 4793 c-11 -21 -1 -68 16 -71 14 -3 17 4 17 37 0 29 -4 41 -14
41 -8 0 -17 -3 -19 -7z"/>
<path d="M1600 4720 c0 -72 2 -81 18 -78 14 3 17 15 17 78 0 63 -3 75 -17 78
-16 3 -18 -6 -18 -78z"/>
<path d="M1920 4760 c0 -34 3 -41 18 -38 12 2 17 13 17 38 0 25 -5 36 -17 38
-15 3 -18 -4 -18 -38z"/>
<path d="M2104 4787 c-9 -25 0 -62 16 -62 10 0 15 10 15 34 0 36 -21 54 -31
28z"/>
<path d="M2800 4760 c0 -34 3 -41 18 -38 12 2 17 13 17 38 0 25 -5 36 -17 38
-15 3 -18 -4 -18 -38z"/>
<path d="M3186 4788 c-11 -34 -18 -89 -20 -153 -1 -59 2 -70 17 -73 14 -3 17
4 17 36 0 32 4 41 21 45 19 5 21 10 14 39 -4 18 -10 51 -14 72 -6 39 -27 60
-35 34z"/>
<path d="M3267 4793 c-11 -10 -8 -61 3 -68 6 -4 10 10 10 34 0 42 -2 46 -13
34z"/>
<path d="M3644 4787 c-2 -7 -3 -42 -2 -77 2 -52 6 -65 21 -68 15 -3 17 6 17
77 0 66 -3 81 -15 81 -9 0 -18 -6 -21 -13z"/>
<path d="M3828 4794 c-11 -11 -10 -62 2 -69 6 -3 10 -42 10 -86 0 -71 2 -80
18 -77 14 3 17 16 20 76 2 66 1 74 -17 79 -15 4 -21 15 -23 45 -2 22 -6 36
-10 32z"/>
<path d="M4224 4639 c-17 -24 -17 -76 0 -82 11 -4 16 -19 16 -42 0 -29 3 -36
18 -33 25 5 26 69 1 75 -13 4 -19 17 -21 51 -2 34 -6 42 -14 31z"/>
<path d="M1384 4627 c-9 -25 0 -62 16 -62 10 0 15 10 15 34 0 36 -21 54 -31
28z"/>
<path d="M1484 4627 c-2 -7 -3 -42 -2 -77 2 -52 6 -65 21 -68 15 -3 17 6 17
77 0 66 -3 81 -15 81 -9 0 -18 -6 -21 -13z"/>
<path d="M1807 4633 c-11 -21 -1 -68 16 -71 14 -3 17 4 17 37 0 29 -4 41 -14
41 -8 0 -17 -3 -19 -7z"/>
<path d="M2000 4600 c0 -34 3 -41 18 -38 12 2 17 13 17 38 0 25 -5 36 -17 38
-15 3 -18 -4 -18 -38z"/>
<path d="M2720 4400 c0 -225 1 -241 18 -238 16 3 17 22 17 238 0 216 -1 235
-17 238 -17 3 -18 -13 -18 -238z"/>
<path d="M3007 4633 c-11 -21 -1 -68 16 -71 14 -3 17 4 17 37 0 29 -4 41 -14
41 -8 0 -17 -3 -19 -7z"/>
<path d="M3280 4560 c0 -72 2 -81 18 -78 14 3 17 15 17 78 0 63 -3 75 -17 78
-16 3 -18 -6 -18 -78z"/>
<path d="M3384 4627 c-9 -25 0 -62 16 -62 10 0 15 10 15 34 0 36 -21 54 -31
28z"/>
<path d="M3464 4627 c-9 -25 0 -62 16 -62 10 0 15 10 15 34 0 36 -21 54 -31
28z"/>
<path d="M4320 4520 c0 -110 2 -121 18 -118 15 3 17 17 17 118 0 101 -2 115
-17 118 -16 3 -18 -8 -18 -118z"/>
<path d="M4504 4627 c-9 -25 0 -62 16 -62 10 0 15 10 15 34 0 36 -21 54 -31
28z"/>
<path d="M1600 4520 c0 -34 3 -41 18 -38 12 2 17 13 17 38 0 25 -5 36 -17 38
-15 3 -18 -4 -18 -38z"/>
<path d="M2207 4553 c-11 -21 -1 -68 16 -71 14 -3 17 4 17 37 0 29 -4 41 -14
41 -8 0 -17 -3 -19 -7z"/>
<path d="M2320 4480 c0 -72 2 -81 18 -78 14 3 17 15 17 78 0 63 -3 75 -17 78
-16 3 -18 -6 -18 -78z"/>
<path d="M2904 4547 c-9 -25 0 -62 16 -62 10 0 15 10 15 34 0 36 -21 54 -31
28z"/>
<path d="M3564 4547 c-2 -7 -3 -42 -2 -77 2 -52 6 -65 21 -68 15 -3 17 6 17
77 0 66 -3 81 -15 81 -9 0 -18 -6 -21 -13z"/>
<path d="M4047 4553 c-11 -21 -1 -68 16 -71 14 -3 17 4 17 37 0 29 -4 41 -14
41 -8 0 -17 -3 -19 -7z"/>
<path d="M1064 4467 c-9 -25 0 -62 16 -62 10 0 15 10 15 34 0 36 -21 54 -31
28z"/>
<path d="M1887 4473 c-11 -21 -1 -68 16 -71 14 -3 17 4 17 37 0 29 -4 41 -14
41 -8 0 -17 -3 -19 -7z"/>
<path d="M2424 4467 c-9 -25 0 -62 16 -62 10 0 15 10 15 34 0 36 -21 54 -31
28z"/>
<path d="M3760 4440 c0 -34 3 -41 18 -38 12 2 17 13 17 38 0 25 -5 36 -17 38
-15 3 -18 -4 -18 -38z"/>
<path d="M3947 4474 c-12 -12 -8 -72 6 -86 6 -7 12 -24 12 -38 0 -16 6 -26 18
-28 14 -3 17 4 17 35 0 22 -4 43 -9 49 -5 5 -11 22 -13 38 -3 29 -18 43 -31
30z"/>
<path d="M1378 4443 c12 -2 32 -2 45 0 12 2 2 4 -23 4 -25 0 -35 -2 -22 -4z"/>
<path d="M1378 4423 c12 -2 32 -2 45 0 12 2 2 4 -23 4 -25 0 -35 -2 -22 -4z"/>
<path d="M1378 4403 c12 -2 32 -2 45 0 12 2 2 4 -23 4 -25 0 -35 -2 -22 -4z"/>
<path d="M847 4393 c-11 -21 -1 -68 16 -71 14 -3 17 4 17 37 0 29 -4 41 -14
41 -8 0 -17 -3 -19 -7z"/>
<path d="M1167 4393 c-11 -21 -1 -68 16 -71 14 -3 17 4 17 37 0 29 -4 41 -14
41 -8 0 -17 -3 -19 -7z"/>
<path d="M1487 4393 c-11 -21 -1 -68 16 -71 14 -3 17 4 17 37 0 29 -4 41 -14
41 -8 0 -17 -3 -19 -7z"/>
<path d="M1807 4393 c-11 -21 -1 -68 16 -71 14 -3 17 4 17 37 0 29 -4 41 -14
41 -8 0 -17 -3 -19 -7z"/>
<path d="M2127 4393 c-11 -21 -1 -68 16 -71 14 -3 17 4 17 37 0 29 -4 41 -14
41 -8 0 -17 -3 -19 -7z"/>
<path d="M2207 4393 c-7 -7 -10 -153 -3 -153 29 0 36 16 36 86 0 55 -3 74 -13
74 -8 0 -17 -3 -20 -7z"/>
<path d="M2560 4362 c0 -30 -4 -41 -18 -45 -26 -6 -25 -70 1 -75 14 -3 17 4
17 37 0 22 5 43 10 46 6 3 10 19 10 35 0 16 -4 32 -10 35 -6 4 -10 -10 -10
-33z"/>
<path d="M2627 4393 c-11 -10 -8 -61 3 -68 6 -4 10 10 10 34 0 42 -2 46 -13
34z"/>
<path d="M2904 4387 c-9 -25 0 -62 16 -62 10 0 15 10 15 34 0 36 -21 54 -31
28z"/>
<path d="M3200 4360 c0 -34 3 -41 18 -38 12 2 17 13 17 38 0 25 -5 36 -17 38
-15 3 -18 -4 -18 -38z"/>
<path d="M3864 4387 c-9 -25 0 -62 16 -62 10 0 15 10 15 34 0 36 -21 54 -31
28z"/>
<path d="M4047 4393 c-11 -21 -1 -68 16 -71 14 -3 17 4 17 37 0 29 -4 41 -14
41 -8 0 -17 -3 -19 -7z"/>
<path d="M4800 4360 c0 -34 3 -41 18 -38 12 2 17 13 17 38 0 25 -5 36 -17 38
-15 3 -18 -4 -18 -38z"/>
<path d="M640 4280 c0 -34 3 -41 18 -38 12 2 17 13 17 38 0 25 -5 36 -17 38
-15 3 -18 -4 -18 -38z"/>
<path d="M1600 4280 c0 -34 3 -41 18 -38 12 2 17 13 17 38 0 25 -5 36 -17 38
-15 3 -18 -4 -18 -38z"/>
<path d="M1920 4280 c0 -34 3 -41 18 -38 12 2 17 13 17 38 0 25 -5 36 -17 38
-15 3 -18 -4 -18 -38z"/>
<path d="M2024 4307 c-9 -25 0 -62 16 -62 10 0 15 10 15 34 0 36 -21 54 -31
28z"/>
<path d="M2320 4280 c0 -34 3 -41 18 -38 12 2 17 13 17 38 0 25 -5 36 -17 38
-15 3 -18 -4 -18 -38z"/>
<path d="M3087 4313 c-11 -21 -1 -68 16 -71 14 -3 17 4 17 37 0 29 -4 41 -14
41 -8 0 -17 -3 -19 -7z"/>
<path d="M3304 4307 c-9 -25 0 -62 16 -62 10 0 15 10 15 34 0 36 -21 54 -31
28z"/>
<path d="M3520 4282 c0 -30 -4 -41 -18 -45 -26 -6 -25 -70 1 -75 14 -3 17 4
17 37 0 22 5 43 10 46 6 3 10 19 10 35 0 16 -4 32 -10 35 -6 4 -10 -10 -10
-33z"/>
<path d="M3587 4313 c-11 -10 -8 -61 3 -68 6 -4 10 10 10 34 0 42 -2 46 -13
34z"/>
<path d="M3680 4240 c0 -72 2 -81 18 -78 14 3 17 15 17 78 0 63 -3 75 -17 78
-16 3 -18 -6 -18 -78z"/>
<path d="M3784 4307 c-9 -25 0 -62 16 -62 10 0 15 10 15 34 0 36 -21 54 -31
28z"/>
<path d="M4720 4280 c0 -34 3 -41 18 -38 12 2 17 13 17 38 0 25 -5 36 -17 38
-15 3 -18 -4 -18 -38z"/>
<path d="M2146 4241 c-20 -8 -25 -29 -29 -111 l-2 -45 40 0 c30 0 41 4 43 18
2 12 -3 17 -17 17 -18 0 -21 6 -21 49 0 30 5 51 13 54 8 3 9 8 2 15 -5 5 -19
7 -29 3z"/>
<path d="M527 4233 c-11 -21 -1 -68 16 -71 14 -3 17 4 17 37 0 29 -4 41 -14
41 -8 0 -17 -3 -19 -7z"/>
<path d="M1704 4227 c-3 -8 -4 -43 -2 -78 2 -49 7 -64 18 -64 12 0 15 15 15
74 0 51 -4 76 -12 78 -7 3 -15 -2 -19 -10z"/>
<path d="M1804 4227 c-2 -7 -3 -42 -2 -77 3 -62 4 -65 28 -65 20 0 26 6 28 29
2 16 -1 33 -7 39 -6 6 -11 28 -11 49 0 27 -4 38 -15 38 -9 0 -18 -6 -21 -13z"/>
<path d="M2424 4227 c-3 -8 -4 -43 -2 -78 2 -49 7 -64 18 -64 12 0 15 15 15
74 0 51 -4 76 -12 78 -7 3 -15 -2 -19 -10z"/>
<path d="M2824 4227 c-9 -25 0 -62 16 -62 10 0 15 10 15 34 0 36 -21 54 -31
28z"/>
<path d="M3884 4227 c-2 -7 -3 -42 -2 -77 2 -52 6 -65 21 -68 15 -3 17 6 17
77 0 66 -3 81 -15 81 -9 0 -18 -6 -21 -13z"/>
<path d="M3967 4233 c-11 -21 -1 -68 16 -71 14 -3 17 4 17 37 0 29 -4 41 -14
41 -8 0 -17 -3 -19 -7z"/>
<path d="M4528 4233 c-3 -4 -4 -21 -4 -38 1 -25 5 -30 26 -30 22 0 25 4 25 35
0 28 -4 36 -22 38 -11 2 -23 0 -25 -5z"/>
<path d="M4627 4233 c-11 -10 -8 -61 3 -68 6 -4 10 10 10 34 0 42 -2 46 -13
34z"/>
<path d="M4824 4227 c-3 -8 -4 -43 -2 -78 2 -49 7 -64 18 -64 12 0 15 15 15
74 0 51 -4 76 -12 78 -7 3 -15 -2 -19 -10z"/>
<path d="M2222 4168 c-17 -17 -15 -48 3 -48 10 0 15 10 15 30 0 34 -1 35 -18
18z"/>
<path d="M2493 4163 c-7 -2 -13 -13 -13 -24 0 -13 7 -19 24 -19 13 0 31 -3 40
-6 13 -5 16 1 16 25 0 27 -3 31 -27 30 -16 0 -34 -3 -40 -6z"/>
<path d="M1487 4153 c-11 -21 -1 -68 16 -71 14 -3 17 4 17 37 0 29 -4 41 -14
41 -8 0 -17 -3 -19 -7z"/>
<path d="M1907 4153 c-11 -10 -8 -61 3 -68 6 -4 10 10 10 34 0 42 -2 46 -13
34z"/>
<path d="M2320 4121 c0 -22 -4 -43 -10 -46 -5 -3 -10 -19 -10 -35 0 -16 5 -32
10 -35 6 -3 10 -24 10 -46 0 -33 3 -40 18 -37 15 3 17 17 17 118 0 101 -2 115
-17 118 -15 3 -18 -4 -18 -37z"/>
<path d="M3120 4080 c0 -72 2 -81 18 -78 14 3 17 15 17 78 0 63 -3 75 -17 78
-16 3 -18 -6 -18 -78z"/>
<path d="M3600 4123 c0 -22 -5 -44 -10 -49 -6 -6 -10 -41 -8 -80 3 -66 4 -69
28 -69 l25 0 0 115 c0 101 -2 115 -17 118 -15 3 -18 -4 -18 -35z"/>
<path d="M400 4040 c0 -34 3 -41 18 -38 12 2 17 13 17 38 0 25 -5 36 -17 38
-15 3 -18 -4 -18 -38z"/>
<path d="M1064 4067 c-9 -25 0 -62 16 -62 10 0 15 10 15 34 0 36 -21 54 -31
28z"/>
<path d="M1280 4040 c0 -34 3 -41 18 -38 12 2 17 13 17 38 0 25 -5 36 -17 38
-15 3 -18 -4 -18 -38z"/>
<path d="M1600 3960 c0 -110 2 -121 18 -118 15 3 17 17 17 118 0 101 -2 115
-17 118 -16 3 -18 -8 -18 -118z"/>
<path d="M2240 4042 c0 -31 -4 -41 -20 -45 -19 -5 -20 -12 -18 -79 3 -60 6
-73 21 -76 15 -3 17 6 17 77 0 44 5 83 10 86 6 3 10 19 10 35 0 16 -4 32 -10
35 -6 4 -10 -10 -10 -33z"/>
<path d="M2825 4068 c-3 -8 -4 -79 -3 -158 3 -121 5 -145 18 -145 13 0 15 24
15 154 0 115 -3 155 -12 158 -7 3 -15 -2 -18 -9z"/>
<path d="M2927 4073 c-11 -21 -1 -68 16 -71 14 -3 17 4 17 37 0 29 -4 41 -14
41 -8 0 -17 -3 -19 -7z"/>
<path d="M3485 4068 c-3 -8 -4 -43 -3 -78 3 -62 4 -65 28 -65 24 0 25 2 25 75
0 70 -1 75 -23 78 -12 2 -24 -3 -27 -10z"/>
<path d="M3680 4040 c0 -34 3 -41 18 -38 12 2 17 13 17 38 0 25 -5 36 -17 38
-15 3 -18 -4 -18 -38z"/>
<path d="M3804 4067 c-2 -7 -3 -42 -2 -77 2 -52 6 -65 21 -68 15 -3 17 6 17
77 0 66 -3 81 -15 81 -9 0 -18 -6 -21 -13z"/>
<path d="M4080 4000 c0 -72 2 -81 18 -78 14 3 17 15 17 78 0 63 -3 75 -17 78
-16 3 -18 -6 -18 -78z"/>
<path d="M4364 4067 c-2 -7 -3 -42 -2 -77 2 -52 6 -65 21 -68 15 -3 17 6 17
77 0 66 -3 81 -15 81 -9 0 -18 -6 -21 -13z"/>
<path d="M4449 4078 c0 -2 -3 -18 -6 -36 -3 -28 -1 -34 16 -39 19 -5 21 -13
21 -85 0 -70 2 -79 18 -76 14 3 17 16 20 76 2 67 1 74 -18 79 -16 4 -20 14
-20 44 0 28 -4 39 -15 39 -8 0 -15 -1 -16 -2z"/>
<path d="M4744 4067 c-9 -25 0 -62 16 -62 10 0 15 10 15 34 0 36 -21 54 -31
28z"/>
<path d="M4927 4073 c-11 -21 -1 -68 16 -71 14 -3 17 4 17 37 0 29 -4 41 -14
41 -8 0 -17 -3 -19 -7z"/>
<path d="M504 3987 c-9 -25 0 -62 16 -62 10 0 15 10 15 34 0 36 -21 54 -31 28z"/>
<path d="M1704 3987 c-9 -25 0 -62 16 -62 10 0 15 10 15 34 0 36 -21 54 -31
28z"/>
<path d="M2608 3993 c-3 -4 -4 -21 -4 -38 1 -27 4 -30 36 -30 33 0 35 2 35 35
0 32 -3 35 -32 38 -17 2 -33 -1 -35 -5z"/>
<path d="M4184 3987 c-9 -25 0 -62 16 -62 10 0 15 10 15 34 0 36 -21 54 -31
28z"/>
<path d="M264 3907 c-9 -25 0 -62 16 -62 10 0 15 10 15 34 0 36 -21 54 -31 28z"/>
<path d="M607 3913 c-11 -21 -1 -68 16 -71 14 -3 17 4 17 37 0 29 -4 41 -14
41 -8 0 -17 -3 -19 -7z"/>
<path d="M1164 3907 c-2 -7 -3 -42 -2 -77 2 -52 6 -65 21 -68 15 -3 17 6 17
77 0 66 -3 81 -15 81 -9 0 -18 -6 -21 -13z"/>
<path d="M1887 3913 c-11 -21 -1 -68 16 -71 14 -3 17 4 17 37 0 29 -4 41 -14
41 -8 0 -17 -3 -19 -7z"/>
<path d="M2720 3840 c0 -72 2 -81 18 -78 14 3 17 15 17 78 0 63 -3 75 -17 78
-16 3 -18 -6 -18 -78z"/>
<path d="M2924 3907 c-3 -8 -4 -97 -2 -198 l3 -184 35 0 c33 0 35 2 36 34 1
25 -4 35 -17 38 -18 5 -19 18 -19 164 0 136 -2 159 -15 159 -9 0 -18 -6 -21
-13z"/>
<path d="M1384 3827 c-9 -25 0 -62 16 -62 10 0 15 10 15 34 0 36 -21 54 -31
28z"/>
<path d="M2424 3827 c-3 -8 -4 -43 -2 -78 2 -49 7 -64 18 -64 12 0 15 15 15
74 0 51 -4 76 -12 78 -7 3 -15 -2 -19 -10z"/>
<path d="M3324 3827 c-2 -7 -3 -42 -2 -77 2 -52 6 -65 21 -68 15 -3 17 6 17
77 0 66 -3 81 -15 81 -9 0 -18 -6 -21 -13z"/>
<path d="M3704 3827 c-9 -25 0 -62 16 -62 10 0 15 10 15 34 0 36 -21 54 -31
28z"/>
<path d="M4104 3827 c-3 -8 -4 -43 -2 -78 2 -49 7 -64 18 -64 12 0 15 15 15
74 0 51 -4 76 -12 78 -7 3 -15 -2 -19 -10z"/>
<path d="M4287 3833 c-11 -21 -1 -68 16 -71 14 -3 17 4 17 37 0 29 -4 41 -14
41 -8 0 -17 -3 -19 -7z"/>
<path d="M4014 3756 c-8 -22 0 -81 11 -81 6 0 11 21 13 48 3 45 -12 65 -24 33z"/>
<path d="M4073 3730 c0 -25 2 -35 4 -22 2 12 2 32 0 45 -2 12 -4 2 -4 -23z"/>
<path d="M607 3753 c-11 -21 -1 -68 16 -71 14 -3 17 4 17 37 0 29 -4 41 -14
41 -8 0 -17 -3 -19 -7z"/>
<path d="M2524 3747 c-2 -7 -3 -42 -2 -77 2 -52 6 -65 21 -68 15 -3 17 6 17
77 0 66 -3 81 -15 81 -9 0 -18 -6 -21 -13z"/>
<path d="M3224 3747 c-3 -8 -4 -43 -2 -78 2 -49 7 -64 18 -64 12 0 15 15 15
74 0 51 -4 76 -12 78 -7 3 -15 -2 -19 -10z"/>
<path d="M4204 3747 c-2 -7 -3 -42 -2 -77 2 -52 6 -65 21 -68 15 -3 17 6 17
77 0 66 -3 81 -15 81 -9 0 -18 -6 -21 -13z"/>
<path d="M4400 3720 c0 -34 3 -41 18 -38 12 2 17 13 17 38 0 25 -5 36 -17 38
-15 3 -18 -4 -18 -38z"/>
<path d="M47 3673 c-11 -21 -1 -68 16 -71 14 -3 17 4 17 37 0 29 -4 41 -14 41
-8 0 -17 -3 -19 -7z"/>
<path d="M720 3640 c0 -34 3 -41 18 -38 12 2 17 13 17 38 0 25 -5 36 -17 38
-15 3 -18 -4 -18 -38z"/>
<path d="M927 3673 c-11 -21 -1 -68 16 -71 14 -3 17 4 17 37 0 29 -4 41 -14
41 -8 0 -17 -3 -19 -7z"/>
<path d="M1600 3640 c0 -34 3 -41 18 -38 12 2 17 13 17 38 0 25 -5 36 -17 38
-15 3 -18 -4 -18 -38z"/>
<path d="M2640 3640 c0 -34 3 -41 18 -38 12 2 17 13 17 38 0 25 -5 36 -17 38
-15 3 -18 -4 -18 -38z"/>
<path d="M2824 3667 c-9 -25 0 -62 16 -62 10 0 15 10 15 34 0 36 -21 54 -31
28z"/>
<path d="M3144 3667 c-9 -25 0 -62 16 -62 10 0 15 10 15 34 0 36 -21 54 -31
28z"/>
<path d="M3624 3667 c-9 -25 0 -62 16 -62 10 0 15 10 15 34 0 36 -21 54 -31
28z"/>
<path d="M3809 3678 c0 -2 -3 -18 -6 -36 -3 -28 -1 -34 16 -39 17 -4 21 -13
21 -45 0 -32 3 -39 18 -36 25 5 26 69 1 75 -14 4 -19 15 -19 44 0 28 -4 39
-15 39 -8 0 -15 -1 -16 -2z"/>
<path d="M5144 3667 c-9 -25 0 -62 16 -62 10 0 15 10 15 34 0 36 -21 54 -31
28z"/>
<path d="M5247 3673 c-11 -21 -1 -68 16 -71 14 -3 17 4 17 37 0 29 -4 41 -14
41 -8 0 -17 -3 -19 -7z"/>
<path d="M2720 3620 c0 -17 7 -20 40 -20 33 0 40 3 40 20 0 17 -7 20 -40 20
-33 0 -40 -3 -40 -20z"/>
<path d="M3440 3525 c0 -65 3 -86 13 -83 19 7 22 142 2 158 -13 11 -15 3 -15
-75z"/>
<path d="M824 3587 c-9 -25 0 -62 16 -62 10 0 15 10 15 34 0 36 -21 54 -31 28z"/>
<path d="M1807 3593 c-11 -21 -1 -68 16 -71 14 -3 17 4 17 37 0 29 -4 41 -14
41 -8 0 -17 -3 -19 -7z"/>
<path d="M2000 3560 c0 -34 3 -41 18 -38 12 2 17 13 17 38 0 25 -5 36 -17 38
-15 3 -18 -4 -18 -38z"/>
<path d="M3520 3560 c0 -34 3 -41 18 -38 12 2 17 13 17 38 0 25 -5 36 -17 38
-15 3 -18 -4 -18 -38z"/>
<path d="M3920 3520 c0 -72 2 -81 18 -78 14 3 17 15 17 78 0 63 -3 75 -17 78
-16 3 -18 -6 -18 -78z"/>
<path d="M4024 3587 c-9 -25 0 -62 16 -62 10 0 15 10 15 34 0 36 -21 54 -31
28z"/>
<path d="M5360 3560 c0 -34 3 -41 18 -38 12 2 17 13 17 38 0 25 -5 36 -17 38
-15 3 -18 -4 -18 -38z"/>
<path d="M927 3513 c-11 -21 -1 -68 16 -71 14 -3 17 4 17 37 0 29 -4 41 -14
41 -8 0 -17 -3 -19 -7z"/>
<path d="M1040 3480 c0 -34 3 -41 18 -38 12 2 17 13 17 38 0 25 -5 36 -17 38
-15 3 -18 -4 -18 -38z"/>
<path d="M1247 3513 c-11 -21 -1 -68 16 -71 14 -3 17 4 17 37 0 29 -4 41 -14
41 -8 0 -17 -3 -19 -7z"/>
<path d="M1567 3513 c-11 -21 -1 -68 16 -71 14 -3 17 4 17 37 0 29 -4 41 -14
41 -8 0 -17 -3 -19 -7z"/>
<path d="M2207 3513 c-11 -21 -1 -68 16 -71 14 -3 17 4 17 37 0 29 -4 41 -14
41 -8 0 -17 -3 -19 -7z"/>
<path d="M2844 3507 c-2 -7 -3 -42 -2 -77 2 -52 6 -65 21 -68 15 -3 17 6 17
77 0 66 -3 81 -15 81 -9 0 -18 -6 -21 -13z"/>
<path d="M3247 3513 c-11 -21 -1 -68 16 -71 14 -3 17 4 17 37 0 29 -4 41 -14
41 -8 0 -17 -3 -19 -7z"/>
<path d="M3327 3513 c-11 -21 -1 -68 16 -71 14 -3 17 4 17 37 0 29 -4 41 -14
41 -8 0 -17 -3 -19 -7z"/>
<path d="M3726 3511 c-3 -5 -5 -39 -5 -76 1 -57 4 -68 20 -72 15 -4 19 -15 19
-45 0 -23 4 -37 10 -33 6 3 10 19 10 35 0 16 -4 32 -10 35 -5 3 -10 42 -10 86
0 62 -3 79 -14 79 -8 0 -17 -4 -20 -9z"/>
<path d="M4129 3518 c0 -2 -3 -18 -6 -36 -3 -28 -1 -34 16 -39 29 -7 31 -78 3
-86 -26 -6 -25 -70 1 -75 14 -3 17 4 17 37 0 22 5 43 10 46 6 3 10 19 10 35 0
16 -4 32 -10 35 -5 3 -10 24 -10 46 0 28 -4 39 -15 39 -8 0 -15 -1 -16 -2z"/>
<path d="M4320 3481 c0 -22 -4 -43 -10 -46 -5 -3 -10 -19 -10 -35 0 -16 5 -32
10 -35 6 -3 10 -24 10 -46 0 -33 3 -40 18 -37 25 5 26 69 1 75 -29 8 -27 79 2
86 16 4 20 12 16 39 -2 21 -9 34 -20 36 -14 3 -17 -4 -17 -37z"/>
<path d="M824 3427 c-9 -25 0 -62 16 -62 10 0 15 10 15 34 0 36 -21 54 -31 28z"/>
<path d="M1704 3427 c-9 -25 0 -62 16 -62 10 0 15 10 15 34 0 36 -21 54 -31
28z"/>
<path d="M2320 3400 c0 -34 3 -41 18 -38 12 2 17 13 17 38 0 25 -5 36 -17 38
-15 3 -18 -4 -18 -38z"/>
<path d="M3144 3427 c-9 -25 0 -62 16 -62 10 0 15 10 15 34 0 36 -21 54 -31
28z"/>
<path d="M4224 3427 c-9 -25 0 -62 16 -62 10 0 15 10 15 34 0 36 -21 54 -31
28z"/>
<path d="M4507 3434 c-10 -11 -8 -63 3 -84 5 -10 11 -46 12 -81 2 -51 6 -64
21 -67 15 -3 17 6 17 75 0 44 -4 83 -9 89 -5 5 -11 22 -13 38 -3 29 -18 43
-31 30z"/>
<path d="M5087 3433 c-11 -21 -1 -68 16 -71 14 -3 17 4 17 37 0 29 -4 41 -14
41 -8 0 -17 -3 -19 -7z"/>
<path d="M927 3353 c-11 -21 -1 -68 16 -71 14 -3 17 4 17 37 0 29 -4 41 -14
41 -8 0 -17 -3 -19 -7z"/>
<path d="M1144 3347 c-9 -25 0 -62 16 -62 10 0 15 10 15 34 0 36 -21 54 -31
28z"/>
<path d="M1487 3353 c-11 -21 -1 -68 16 -71 14 -3 17 4 17 37 0 29 -4 41 -14
41 -8 0 -17 -3 -19 -7z"/>
<path d="M1600 3320 c0 -34 3 -41 18 -38 12 2 17 13 17 38 0 25 -5 36 -17 38
-15 3 -18 -4 -18 -38z"/>
<path d="M1920 3320 c0 -34 3 -41 18 -38 12 2 17 13 17 38 0 25 -5 36 -17 38
-15 3 -18 -4 -18 -38z"/>
<path d="M2424 3347 c-9 -25 0 -62 16 -62 10 0 15 10 15 34 0 36 -21 54 -31
28z"/>
<path d="M2560 3322 c0 -30 -4 -41 -18 -45 -14 -3 -19 -13 -18 -38 1 -32 3
-34 36 -34 l35 0 0 75 c0 63 -3 75 -17 78 -15 3 -18 -4 -18 -36z"/>
<path d="M2744 3347 c-9 -25 0 -62 16 -62 10 0 15 10 15 34 0 36 -21 54 -31
28z"/>
<path d="M3644 3347 c-2 -7 -3 -42 -2 -77 2 -52 6 -65 21 -68 15 -3 17 6 17
77 0 66 -3 81 -15 81 -9 0 -18 -6 -21 -13z"/>
<path d="M3824 3346 c-3 -8 -4 -25 -2 -38 2 -17 9 -23 28 -23 22 0 25 4 25 35
0 29 -4 36 -23 38 -13 2 -24 -3 -28 -12z"/>
<path d="M1040 3240 c0 -34 3 -41 18 -38 12 2 17 13 17 38 0 25 -5 36 -17 38
-15 3 -18 -4 -18 -38z"/>
<path d="M1280 3240 c0 -34 3 -41 18 -38 12 2 17 13 17 38 0 25 -5 36 -17 38
-15 3 -18 -4 -18 -38z"/>
<path d="M1360 3240 c0 -34 3 -41 18 -38 12 2 17 13 17 38 0 25 -5 36 -17 38
-15 3 -18 -4 -18 -38z"/>
<path d="M3244 3267 c-2 -7 -3 -42 -2 -77 2 -52 6 -65 21 -68 15 -3 17 6 17
77 0 66 -3 81 -15 81 -9 0 -18 -6 -21 -13z"/>
<path d="M3360 3240 c0 -34 3 -41 18 -38 12 2 17 13 17 38 0 25 -5 36 -17 38
-15 3 -18 -4 -18 -38z"/>
<path d="M3440 3240 c0 -34 3 -41 18 -38 12 2 17 13 17 38 0 25 -5 36 -17 38
-15 3 -18 -4 -18 -38z"/>
<path d="M3947 3274 c-4 -4 -7 -20 -7 -35 0 -15 -4 -31 -10 -34 -22 -13 -8
-25 30 -25 40 0 48 7 31 26 -5 5 -11 22 -13 38 -3 29 -18 43 -31 30z"/>
<path d="M4240 3240 c0 -34 3 -41 18 -38 12 2 17 13 17 38 0 25 -5 36 -17 38
-15 3 -18 -4 -18 -38z"/>
<path d="M264 3187 c-9 -25 0 -62 16 -62 10 0 15 10 15 34 0 36 -21 54 -31 28z"/>
<path d="M927 3193 c-11 -21 -1 -68 16 -71 14 -3 17 4 17 37 0 29 -4 41 -14
41 -8 0 -17 -3 -19 -7z"/>
<path d="M1144 3187 c-9 -25 0 -62 16 -62 10 0 15 10 15 34 0 36 -21 54 -31
28z"/>
<path d="M2444 3187 c-2 -7 -3 -42 -2 -77 2 -52 6 -65 21 -68 15 -3 17 6 17
77 0 66 -3 81 -15 81 -9 0 -18 -6 -21 -13z"/>
<path d="M2927 3193 c-11 -21 -1 -68 16 -71 14 -3 17 4 17 37 0 29 -4 41 -14
41 -8 0 -17 -3 -19 -7z"/>
<path d="M3760 3080 c0 -110 2 -121 18 -118 14 3 17 14 15 73 -4 179 -33 218
-33 45z"/>
<path d="M3827 3193 c-11 -10 -8 -61 3 -68 6 -4 10 10 10 34 0 42 -2 46 -13
34z"/>
<path d="M5680 3160 c0 -34 3 -41 18 -38 12 2 17 13 17 38 0 25 -5 36 -17 38
-15 3 -18 -4 -18 -38z"/>
<path d="M3920 3130 c0 -5 18 -10 40 -10 22 0 40 5 40 10 0 6 -18 10 -40 10
-22 0 -40 -4 -40 -10z"/>
<path d="M2744 3107 c-9 -25 0 -62 16 -62 10 0 15 10 15 34 0 36 -21 54 -31
28z"/>
<path d="M2847 3113 c-11 -21 -1 -68 16 -71 14 -3 17 4 17 37 0 29 -4 41 -14
41 -8 0 -17 -3 -19 -7z"/>
<path d="M3360 3080 c0 -34 3 -41 18 -38 12 2 17 13 17 38 0 25 -5 36 -17 38
-15 3 -18 -4 -18 -38z"/>
<path d="M3864 3107 c-9 -25 0 -62 16 -62 10 0 15 10 15 34 0 36 -21 54 -31
28z"/>
<path d="M4560 3038 c0 -46 4 -88 9 -93 6 -6 11 -39 13 -75 2 -50 7 -65 18
-65 23 0 26 114 5 159 -11 23 -15 54 -13 92 2 49 0 59 -14 62 -16 3 -18 -6
-18 -80z"/>
<path d="M1760 3061 c0 -13 8 -21 23 -23 18 -2 22 -9 22 -38 0 -25 5 -36 18
-38 15 -3 17 5 17 57 l0 61 -40 0 c-33 0 -40 -3 -40 -19z"/>
<path d="M927 3033 c-11 -21 -1 -68 16 -71 14 -3 17 4 17 37 0 29 -4 41 -14
41 -8 0 -17 -3 -19 -7z"/>
<path d="M1144 3027 c-9 -25 0 -62 16 -62 10 0 15 10 15 34 0 36 -21 54 -31
28z"/>
<path d="M1600 3000 c0 -34 3 -41 18 -38 12 2 17 13 17 38 0 25 -5 36 -17 38
-15 3 -18 -4 -18 -38z"/>
<path d="M2127 3033 c-11 -21 -1 -68 16 -71 14 -3 17 4 17 37 0 29 -4 41 -14
41 -8 0 -17 -3 -19 -7z"/>
<path d="M2640 3000 c0 -34 3 -41 18 -38 12 2 17 13 17 38 0 25 -5 36 -17 38
-15 3 -18 -4 -18 -38z"/>
<path d="M2960 3000 c0 -34 3 -41 18 -38 12 2 17 13 17 38 0 25 -5 36 -17 38
-15 3 -18 -4 -18 -38z"/>
<path d="M3144 3027 c-9 -25 0 -62 16 -62 10 0 15 10 15 34 0 36 -21 54 -31
28z"/>
<path d="M3564 3027 c-2 -7 -3 -42 -2 -77 2 -52 6 -65 21 -68 15 -3 17 6 17
77 0 66 -3 81 -15 81 -9 0 -18 -6 -21 -13z"/>
<path d="M4265 3028 c-3 -8 -4 -61 -3 -119 2 -84 6 -104 18 -104 12 0 15 19
15 114 0 83 -3 115 -12 118 -7 3 -15 -2 -18 -9z"/>
<path d="M4447 3033 c-11 -21 -1 -68 16 -71 14 -3 17 4 17 37 0 29 -4 41 -14
41 -8 0 -17 -3 -19 -7z"/>
<path d="M4640 3000 c0 -34 3 -41 18 -38 12 2 17 13 17 38 0 25 -5 36 -17 38
-15 3 -18 -4 -18 -38z"/>
<path d="M4960 3000 c0 -34 3 -41 18 -38 12 2 17 13 17 38 0 25 -5 36 -17 38
-15 3 -18 -4 -18 -38z"/>
<path d="M1040 2920 c0 -34 3 -41 18 -38 12 2 17 13 17 38 0 25 -5 36 -17 38
-15 3 -18 -4 -18 -38z"/>
<path d="M1704 2947 c-9 -25 0 -62 16 -62 10 0 15 10 15 34 0 36 -21 54 -31
28z"/>
<path d="M1920 2920 c0 -34 3 -41 18 -38 12 2 17 13 17 38 0 25 -5 36 -17 38
-15 3 -18 -4 -18 -38z"/>
<path d="M2208 2953 c-3 -4 -4 -21 -4 -38 1 -27 4 -30 36 -30 33 0 35 2 35 35
0 32 -3 35 -32 38 -17 2 -33 -1 -35 -5z"/>
<path d="M2447 2953 c-11 -21 -1 -68 16 -71 14 -3 17 4 17 37 0 29 -4 41 -14
41 -8 0 -17 -3 -19 -7z"/>
<path d="M3064 2947 c-3 -8 -4 -43 -2 -78 2 -49 7 -64 18 -64 12 0 15 15 15
74 0 51 -4 76 -12 78 -7 3 -15 -2 -19 -10z"/>
<path d="M3864 2947 c-9 -25 0 -62 16 -62 10 0 15 10 15 34 0 36 -21 54 -31
28z"/>
<path d="M4160 2920 c0 -34 3 -41 18 -38 12 2 17 13 17 38 0 25 -5 36 -17 38
-15 3 -18 -4 -18 -38z"/>
<path d="M4367 2953 c-11 -21 -1 -68 16 -71 14 -3 17 4 17 37 0 29 -4 41 -14
41 -8 0 -17 -3 -19 -7z"/>
<path d="M800 2840 c0 -34 3 -41 18 -38 12 2 17 13 17 38 0 25 -5 36 -17 38
-15 3 -18 -4 -18 -38z"/>
<path d="M1600 2840 c0 -34 3 -41 18 -38 12 2 17 13 17 38 0 25 -5 36 -17 38
-15 3 -18 -4 -18 -38z"/>
<path d="M2000 2840 c0 -34 3 -41 18 -38 12 2 17 13 17 38 0 25 -5 36 -17 38
-15 3 -18 -4 -18 -38z"/>
<path d="M2129 2878 c-4 -12 -10 -71 -12 -108 -2 -39 1 -45 18 -45 18 0 20 8
23 78 2 64 0 77 -13 77 -8 0 -15 -1 -16 -2z"/>
<path d="M2640 2840 c0 -34 3 -41 18 -38 12 2 17 13 17 38 0 25 -5 36 -17 38
-15 3 -18 -4 -18 -38z"/>
<path d="M2764 2866 c-3 -7 -4 -60 -2 -117 3 -89 5 -104 21 -107 15 -3 17 8
17 117 0 102 -2 121 -15 121 -9 0 -18 -6 -21 -14z"/>
<path d="M2849 2878 c0 -2 -3 -18 -6 -36 -3 -28 -1 -34 16 -39 19 -5 21 -13
21 -85 0 -70 2 -79 18 -76 14 3 17 16 20 76 2 67 1 74 -18 79 -16 4 -20 14
-20 44 0 28 -4 39 -15 39 -8 0 -15 -1 -16 -2z"/>
<path d="M3784 2867 c-9 -25 0 -62 16 -62 10 0 15 10 15 34 0 36 -21 54 -31
28z"/>
<path d="M4080 2800 c0 -72 2 -81 18 -78 14 3 17 15 17 78 0 63 -3 75 -17 78
-16 3 -18 -6 -18 -78z"/>
<path d="M0 2760 c0 -34 3 -41 17 -38 25 5 25 71 1 76 -15 3 -18 -4 -18 -38z"/>
<path d="M2240 2760 c0 -34 3 -41 18 -38 12 2 17 13 17 38 0 25 -5 36 -17 38
-15 3 -18 -4 -18 -38z"/>
<path d="M2447 2793 c-11 -21 -1 -68 16 -71 14 -3 17 4 17 37 0 29 -4 41 -14
41 -8 0 -17 -3 -19 -7z"/>
<path d="M3487 2793 c-11 -21 -1 -68 16 -71 14 -3 17 4 17 37 0 29 -4 41 -14
41 -8 0 -17 -3 -19 -7z"/>
<path d="M3567 2793 c-11 -21 -1 -68 16 -71 14 -3 17 4 17 37 0 29 -4 41 -14
41 -8 0 -17 -3 -19 -7z"/>
<path d="M4184 2787 c-9 -25 0 -62 16 -62 10 0 15 10 15 34 0 36 -21 54 -31
28z"/>
<path d="M4367 2793 c-11 -21 -1 -68 16 -71 14 -3 17 4 17 37 0 29 -4 41 -14
41 -8 0 -17 -3 -19 -7z"/>
<path d="M5647 2793 c-11 -21 -1 -68 16 -71 14 -3 17 4 17 37 0 29 -4 41 -14
41 -8 0 -17 -3 -19 -7z"/>
<path d="M6207 2793 c-11 -21 -1 -68 16 -71 14 -3 17 4 17 37 0 29 -4 41 -14
41 -8 0 -17 -3 -19 -7z"/>
<path d="M104 2707 c-9 -25 0 -62 16 -62 10 0 15 10 15 34 0 36 -21 54 -31 28z"/>
<path d="M1247 2713 c-11 -21 -1 -68 16 -71 14 -3 17 4 17 37 0 29 -4 41 -14
41 -8 0 -17 -3 -19 -7z"/>
<path d="M1360 2680 c0 -34 3 -41 18 -38 12 2 17 13 17 38 0 25 -5 36 -17 38
-15 3 -18 -4 -18 -38z"/>
<path d="M2344 2707 c-9 -25 0 -62 16 -62 10 0 15 10 15 34 0 36 -21 54 -31
28z"/>
<path d="M3884 2707 c-2 -7 -3 -42 -2 -77 2 -52 6 -65 21 -68 15 -3 17 6 17
77 0 66 -3 81 -15 81 -9 0 -18 -6 -21 -13z"/>
<path d="M207 2633 c-11 -21 -1 -68 16 -71 14 -3 17 4 17 37 0 29 -4 41 -14
41 -8 0 -17 -3 -19 -7z"/>
<path d="M560 2600 c0 -34 3 -41 18 -38 12 2 17 13 17 38 0 25 -5 36 -17 38
-15 3 -18 -4 -18 -38z"/>
<path d="M1807 2633 c-11 -21 -1 -68 16 -71 14 -3 17 4 17 37 0 29 -4 41 -14
41 -8 0 -17 -3 -19 -7z"/>
<path d="M2447 2633 c-11 -21 -1 -68 16 -71 14 -3 17 4 17 37 0 29 -4 41 -14
41 -8 0 -17 -3 -19 -7z"/>
<path d="M3787 2634 c-12 -12 -8 -72 6 -86 6 -7 12 -24 12 -38 0 -16 6 -26 18
-28 14 -3 17 4 17 35 0 22 -4 43 -9 49 -5 5 -11 22 -13 38 -3 29 -18 43 -31
30z"/>
<path d="M4689 2638 c0 -2 -3 -18 -6 -36 -3 -28 -1 -34 16 -39 17 -4 21 -13
21 -45 0 -32 3 -39 18 -36 25 5 26 69 1 75 -14 4 -19 15 -19 44 0 28 -4 39
-15 39 -8 0 -15 -1 -16 -2z"/>
<path d="M104 2547 c-9 -25 0 -62 16 -62 10 0 15 10 15 34 0 36 -21 54 -31 28z"/>
<path d="M1920 2520 c0 -34 3 -41 18 -38 12 2 17 13 17 38 0 25 -5 36 -17 38
-15 3 -18 -4 -18 -38z"/>
<path d="M2880 2480 c0 -72 2 -81 18 -78 14 3 17 15 17 78 0 63 -3 75 -17 78
-16 3 -18 -6 -18 -78z"/>
<path d="M2984 2547 c-3 -8 -4 -43 -2 -78 2 -49 7 -64 18 -64 12 0 15 15 15
74 0 51 -4 76 -12 78 -7 3 -15 -2 -19 -10z"/>
<path d="M560 2440 c0 -34 3 -41 18 -38 12 2 17 13 17 38 0 25 -5 36 -17 38
-15 3 -18 -4 -18 -38z"/>
<path d="M1247 2473 c-11 -21 -1 -68 16 -71 14 -3 17 4 17 37 0 29 -4 41 -14
41 -8 0 -17 -3 -19 -7z"/>
<path d="M1360 2400 c0 -72 2 -81 18 -78 14 3 17 15 17 78 0 63 -3 75 -17 78
-16 3 -18 -6 -18 -78z"/>
<path d="M1464 2467 c-9 -25 0 -62 16 -62 10 0 15 10 15 34 0 36 -21 54 -31
28z"/>
<path d="M2344 2467 c-9 -25 0 -62 16 -62 10 0 15 10 15 34 0 36 -21 54 -31
28z"/>
<path d="M2447 2473 c-11 -21 -1 -68 16 -71 14 -3 17 4 17 37 0 29 -4 41 -14
41 -8 0 -17 -3 -19 -7z"/>
<path d="M2664 2467 c-9 -25 0 -62 16 -62 10 0 15 10 15 34 0 36 -21 54 -31
28z"/>
<path d="M3304 2467 c-9 -25 0 -62 16 -62 10 0 15 10 15 34 0 36 -21 54 -31
28z"/>
<path d="M3704 2467 c-9 -25 0 -62 16 -62 10 0 15 10 15 34 0 36 -21 54 -31
28z"/>
<path d="M4524 2467 c-2 -7 -3 -42 -2 -77 2 -52 6 -65 21 -68 15 -3 17 6 17
77 0 66 -3 81 -15 81 -9 0 -18 -6 -21 -13z"/>
<path d="M4607 2473 c-11 -21 -1 -68 16 -71 14 -3 17 4 17 37 0 29 -4 41 -14
41 -8 0 -17 -3 -19 -7z"/>
<path d="M320 2360 c0 -34 3 -41 18 -38 12 2 17 13 17 38 0 25 -5 36 -17 38
-15 3 -18 -4 -18 -38z"/>
<path d="M2767 2393 c-11 -21 -1 -68 16 -71 14 -3 17 4 17 37 0 29 -4 41 -14
41 -8 0 -17 -3 -19 -7z"/>
<path d="M3087 2393 c-11 -21 -1 -68 16 -71 14 -3 17 4 17 37 0 29 -4 41 -14
41 -8 0 -17 -3 -19 -7z"/>
<path d="M3407 2393 c-11 -21 -1 -68 16 -71 14 -3 17 4 17 37 0 29 -4 41 -14
41 -8 0 -17 -3 -19 -7z"/>
<path d="M3920 2360 c0 -34 3 -41 18 -38 12 2 17 13 17 38 0 25 -5 36 -17 38
-15 3 -18 -4 -18 -38z"/>
<path d="M4080 2315 c0 -8 9 -15 20 -15 13 0 20 -7 20 -20 0 -13 -7 -20 -20
-20 -11 0 -20 -7 -20 -15 0 -8 7 -15 15 -15 9 0 18 7 21 15 4 8 15 15 25 15
12 0 19 7 19 20 0 12 -7 20 -16 20 -8 0 -22 7 -30 15 -9 8 -20 15 -25 15 -5 0
-9 -7 -9 -15z"/>
<path d="M1464 2307 c-9 -25 0 -62 16 -62 10 0 15 10 15 34 0 36 -21 54 -31
28z"/>
<path d="M1804 2306 c-3 -7 -4 -60 -2 -117 3 -89 5 -104 21 -107 14 -3 17 4
17 37 0 22 5 43 10 46 6 3 10 19 10 35 0 16 -4 32 -10 35 -5 3 -10 24 -10 46
0 28 -4 39 -15 39 -9 0 -18 -6 -21 -14z"/>
<path d="M2024 2307 c-9 -25 0 -62 16 -62 10 0 15 10 15 34 0 36 -21 54 -31
28z"/>
<path d="M2664 2307 c-9 -25 0 -62 16 -62 10 0 15 10 15 34 0 36 -21 54 -31
28z"/>
<path d="M3200 2280 c0 -34 3 -41 18 -38 12 2 17 13 17 38 0 25 -5 36 -17 38
-15 3 -18 -4 -18 -38z"/>
<path d="M3520 2280 c0 -34 3 -41 18 -38 12 2 17 13 17 38 0 25 -5 36 -17 38
-15 3 -18 -4 -18 -38z"/>
<path d="M3807 2313 c-11 -21 -1 -68 16 -71 14 -3 17 4 17 37 0 29 -4 41 -14
41 -8 0 -17 -3 -19 -7z"/>
<path d="M4320 2280 c0 -34 3 -41 18 -38 12 2 17 13 17 38 0 25 -5 36 -17 38
-15 3 -18 -4 -18 -38z"/>
<path d="M1008 2233 c-3 -4 -4 -21 -4 -38 1 -27 4 -30 36 -30 33 0 35 2 35 35
0 32 -3 35 -32 38 -17 2 -33 -1 -35 -5z"/>
<path d="M1360 2200 c0 -34 3 -41 18 -38 12 2 17 13 17 38 0 25 -5 36 -17 38
-15 3 -18 -4 -18 -38z"/>
<path d="M1600 2200 c0 -34 3 -41 18 -38 12 2 17 13 17 38 0 25 -5 36 -17 38
-15 3 -18 -4 -18 -38z"/>
<path d="M1704 2227 c-9 -25 0 -62 16 -62 10 0 15 10 15 34 0 36 -21 54 -31
28z"/>
<path d="M1904 2226 c-3 -8 -4 -25 -2 -38 2 -17 9 -23 28 -23 22 0 25 4 25 35
0 29 -4 36 -23 38 -13 2 -24 -3 -28 -12z"/>
<path d="M2240 2200 c0 -34 3 -41 18 -38 12 2 17 13 17 38 0 25 -5 36 -17 38
-15 3 -18 -4 -18 -38z"/>
<path d="M2767 2233 c-11 -21 -1 -68 16 -71 14 -3 17 4 17 37 0 29 -4 41 -14
41 -8 0 -17 -3 -19 -7z"/>
<path d="M3007 2233 c-11 -21 -1 -68 16 -71 14 -3 17 4 17 37 0 29 -4 41 -14
41 -8 0 -17 -3 -19 -7z"/>
<path d="M3089 2238 c0 -2 -3 -18 -6 -36 -3 -28 -1 -34 16 -39 19 -5 21 -13
21 -85 0 -70 2 -79 18 -76 18 4 19 15 6 101 -3 26 -11 50 -15 53 -5 3 -9 23
-9 45 0 28 -4 39 -15 39 -8 0 -15 -1 -16 -2z"/>
<path d="M3406 2231 c-3 -5 -5 -39 -5 -76 1 -57 4 -68 20 -72 27 -7 27 -79 1
-86 -26 -6 -25 -70 1 -75 14 -3 17 4 17 36 0 31 4 41 20 45 27 7 25 68 -2 75
-15 4 -18 16 -18 83 0 62 -3 79 -14 79 -8 0 -17 -4 -20 -9z"/>
<path d="M3624 2227 c-9 -25 0 -62 16 -62 10 0 15 10 15 34 0 36 -21 54 -31
28z"/>
<path d="M3920 2200 c0 -34 3 -41 18 -38 12 2 17 13 17 38 0 25 -5 36 -17 38
-15 3 -18 -4 -18 -38z"/>
<path d="M4424 2227 c-9 -25 0 -62 16 -62 10 0 15 10 15 34 0 36 -21 54 -31
28z"/>
<path d="M5440 2200 c0 -34 3 -41 18 -38 12 2 17 13 17 38 0 25 -5 36 -17 38
-15 3 -18 -4 -18 -38z"/>
<path d="M424 2147 c-3 -8 -4 -43 -2 -78 2 -49 7 -64 18 -64 12 0 15 15 15 74
0 51 -4 76 -12 78 -7 3 -15 -2 -19 -10z"/>
<path d="M2024 2147 c-9 -25 0 -62 16 -62 10 0 15 10 15 34 0 36 -21 54 -31
28z"/>
<path d="M3184 2146 c-3 -8 -4 -25 -2 -38 2 -17 9 -23 28 -23 22 0 25 4 25 35
0 29 -4 36 -23 38 -13 2 -24 -3 -28 -12z"/>
<path d="M3324 2147 c-2 -7 -3 -42 -2 -77 2 -52 6 -65 21 -68 15 -3 17 6 17
77 0 66 -3 81 -15 81 -9 0 -18 -6 -21 -13z"/>
<path d="M3520 2120 c0 -34 3 -41 18 -38 12 2 17 13 17 38 0 25 -5 36 -17 38
-15 3 -18 -4 -18 -38z"/>
<path d="M3727 2153 c-11 -21 -1 -68 16 -71 14 -3 17 4 17 37 0 29 -4 41 -14
41 -8 0 -17 -3 -19 -7z"/>
<path d="M4047 2153 c-11 -21 -1 -68 16 -71 14 -3 17 4 17 37 0 29 -4 41 -14
41 -8 0 -17 -3 -19 -7z"/>
<path d="M1007 2073 c-11 -21 -1 -68 16 -71 14 -3 17 4 17 37 0 29 -4 41 -14
41 -8 0 -17 -3 -19 -7z"/>
<path d="M1224 2067 c-9 -25 0 -62 16 -62 10 0 15 10 15 34 0 36 -21 54 -31
28z"/>
<path d="M1920 2040 c0 -34 3 -41 18 -38 12 2 17 13 17 38 0 25 -5 36 -17 38
-15 3 -18 -4 -18 -38z"/>
<path d="M3007 2073 c-11 -21 -1 -68 16 -71 14 -3 17 4 17 37 0 29 -4 41 -14
41 -8 0 -17 -3 -19 -7z"/>
<path d="M3944 2067 c-3 -8 -4 -43 -2 -78 2 -49 7 -64 18 -64 12 0 15 15 15
74 0 51 -4 76 -12 78 -7 3 -15 -2 -19 -10z"/>
<path d="M4767 2073 c-11 -21 -1 -68 16 -71 14 -3 17 4 17 37 0 29 -4 41 -14
41 -8 0 -17 -3 -19 -7z"/>
<path d="M184 1987 c-9 -25 0 -62 16 -62 10 0 15 10 15 34 0 36 -21 54 -31 28z"/>
<path d="M904 1987 c-9 -25 0 -62 16 -62 10 0 15 10 15 34 0 36 -21 54 -31 28z"/>
<path d="M1464 1987 c-9 -25 0 -62 16 -62 10 0 15 10 15 34 0 36 -21 54 -31
28z"/>
<path d="M1600 1962 c0 -30 -4 -41 -18 -45 -26 -6 -25 -70 1 -75 14 -3 17 4
17 36 0 32 4 41 21 45 16 4 20 12 16 39 -2 21 -9 34 -20 36 -14 3 -17 -4 -17
-36z"/>
<path d="M1804 1987 c-2 -7 -3 -42 -2 -77 2 -52 6 -65 21 -68 15 -3 17 6 17
77 0 66 -3 81 -15 81 -9 0 -18 -6 -21 -13z"/>
<path d="M2024 1987 c-9 -25 0 -62 16 -62 10 0 15 10 15 34 0 36 -21 54 -31
28z"/>
<path d="M2687 1993 c-11 -21 -1 -68 16 -71 14 -3 17 4 17 37 0 29 -4 41 -14
41 -8 0 -17 -3 -19 -7z"/>
<path d="M2905 1988 c-3 -8 -4 -61 -3 -119 2 -84 6 -104 18 -104 12 0 15 19
15 114 0 83 -3 115 -12 118 -7 3 -15 -2 -18 -9z"/>
<path d="M4047 1993 c-11 -21 -1 -68 16 -71 14 -3 17 4 17 37 0 29 -4 41 -14
41 -8 0 -17 -3 -19 -7z"/>
<path d="M4687 1993 c-11 -21 -1 -68 16 -71 14 -3 17 4 17 37 0 29 -4 41 -14
41 -8 0 -17 -3 -19 -7z"/>
<path d="M287 1913 c-11 -21 -1 -68 16 -71 14 -3 17 4 17 37 0 29 -4 41 -14
41 -8 0 -17 -3 -19 -7z"/>
<path d="M3120 1840 c0 -72 2 -81 18 -78 14 3 17 15 17 78 0 63 -3 75 -17 78
-16 3 -18 -6 -18 -78z"/>
<path d="M3327 1913 c-11 -21 -1 -68 16 -71 14 -3 17 4 17 37 0 29 -4 41 -14
41 -8 0 -17 -3 -19 -7z"/>
<path d="M4447 1913 c-11 -21 -1 -68 16 -71 14 -3 17 4 17 37 0 29 -4 41 -14
41 -8 0 -17 -3 -19 -7z"/>
<path d="M2024 1827 c-9 -25 0 -62 16 -62 10 0 15 10 15 34 0 36 -21 54 -31
28z"/>
<path d="M2687 1833 c-11 -21 -1 -68 16 -71 14 -3 17 4 17 37 0 29 -4 41 -14
41 -8 0 -17 -3 -19 -7z"/>
<path d="M3440 1720 c0 -110 2 -121 18 -118 15 3 17 17 17 118 0 101 -2 115
-17 118 -16 3 -18 -8 -18 -118z"/>
<path d="M3544 1827 c-9 -25 0 -62 16 -62 10 0 15 10 15 34 0 36 -21 54 -31
28z"/>
<path d="M3808 1834 c-10 -10 3 -34 18 -34 8 0 14 -9 14 -21 0 -14 5 -19 18
-17 12 2 17 13 17 38 0 32 -3 35 -30 38 -17 2 -34 0 -37 -4z"/>
<path d="M3944 1827 c-9 -25 0 -62 16 -62 10 0 15 10 15 34 0 36 -21 54 -31
28z"/>
<path d="M4584 1827 c-9 -25 0 -62 16 -62 10 0 15 10 15 34 0 36 -21 54 -31
28z"/>
<path d="M4904 1827 c-9 -25 0 -62 16 -62 10 0 15 10 15 34 0 36 -21 54 -31
28z"/>
<path d="M5600 1800 c0 -34 3 -41 18 -38 12 2 17 13 17 38 0 25 -5 36 -17 38
-15 3 -18 -4 -18 -38z"/>
<path d="M3760 1779 c0 -25 33 -22 38 4 2 12 -3 17 -17 17 -15 0 -21 -6 -21
-21z"/>
<path d="M287 1753 c-11 -21 -1 -68 16 -71 14 -3 17 4 17 37 0 29 -4 41 -14
41 -8 0 -17 -3 -19 -7z"/>
<path d="M1224 1747 c-9 -25 0 -62 16 -62 10 0 15 10 15 34 0 36 -21 54 -31
28z"/>
<path d="M1567 1753 c-11 -21 -1 -68 16 -71 14 -3 17 4 17 37 0 29 -4 41 -14
41 -8 0 -17 -3 -19 -7z"/>
<path d="M2800 1720 c0 -34 3 -41 18 -38 12 2 17 13 17 38 0 25 -5 36 -17 38
-15 3 -18 -4 -18 -38z"/>
<path d="M3007 1753 c-11 -21 -1 -68 16 -71 14 -3 17 4 17 37 0 29 -4 41 -14
41 -8 0 -17 -3 -19 -7z"/>
<path d="M3327 1753 c-11 -21 -1 -68 16 -71 14 -3 17 4 17 37 0 29 -4 41 -14
41 -8 0 -17 -3 -19 -7z"/>
<path d="M3647 1753 c-11 -21 -1 -68 16 -71 14 -3 17 4 17 37 0 29 -4 41 -14
41 -8 0 -17 -3 -19 -7z"/>
<path d="M4284 1747 c-2 -7 -3 -42 -2 -77 2 -52 6 -65 21 -68 15 -3 17 6 17
77 0 66 -3 81 -15 81 -9 0 -18 -6 -21 -13z"/>
<path d="M4689 1758 c0 -2 -3 -18 -6 -36 -3 -28 -1 -34 16 -39 17 -4 21 -13
21 -45 0 -32 3 -39 18 -36 25 5 26 69 1 75 -14 4 -19 15 -19 44 0 28 -4 39
-15 39 -8 0 -15 -1 -16 -2z"/>
<path d="M527 1673 c-11 -21 -1 -68 16 -71 14 -3 17 4 17 37 0 29 -4 41 -14
41 -8 0 -17 -3 -19 -7z"/>
<path d="M880 1640 c0 -34 3 -41 18 -38 12 2 17 13 17 38 0 25 -5 36 -17 38
-15 3 -18 -4 -18 -38z"/>
<path d="M1680 1640 c0 -34 3 -41 18 -38 12 2 17 13 17 38 0 25 -5 36 -17 38
-15 3 -18 -4 -18 -38z"/>
<path d="M2240 1560 c0 -110 2 -121 18 -118 15 3 17 17 17 118 0 101 -2 115
-17 118 -16 3 -18 -8 -18 -118z"/>
<path d="M3120 1643 c0 -22 4 -43 9 -48 5 -6 11 -23 13 -40 2 -19 9 -30 18
-30 30 0 8 147 -23 153 -14 3 -17 -4 -17 -35z"/>
<path d="M3224 1667 c-9 -25 0 -62 16 -62 10 0 15 10 15 34 0 36 -21 54 -31
28z"/>
<path d="M3544 1667 c-3 -8 -4 -43 -2 -78 2 -49 7 -64 18 -64 12 0 15 15 15
74 0 51 -4 76 -12 78 -7 3 -15 -2 -19 -10z"/>
<path d="M264 1587 c-9 -25 0 -62 16 -62 10 0 15 10 15 34 0 36 -21 54 -31 28z"/>
<path d="M1567 1593 c-11 -21 -1 -68 16 -71 14 -3 17 4 17 37 0 29 -4 41 -14
41 -8 0 -17 -3 -19 -7z"/>
<path d="M3328 1593 c-3 -4 -4 -21 -4 -38 1 -27 4 -30 36 -30 33 0 35 2 35 35
0 32 -3 35 -32 38 -17 2 -33 -1 -35 -5z"/>
<path d="M880 1480 c0 -34 3 -41 18 -38 12 2 17 13 17 38 0 25 -5 36 -17 38
-15 3 -18 -4 -18 -38z"/>
<path d="M1088 1513 c-3 -4 -4 -21 -4 -38 1 -27 4 -30 36 -30 33 0 35 2 35 35
0 32 -3 35 -32 38 -17 2 -33 -1 -35 -5z"/>
<path d="M1327 1513 c-11 -21 -1 -68 16 -71 14 -3 17 4 17 37 0 29 -4 41 -14
41 -8 0 -17 -3 -19 -7z"/>
<path d="M2584 1507 c-9 -25 0 -62 16 -62 10 0 15 10 15 34 0 36 -21 54 -31
28z"/>
<path d="M2914 1506 c-11 -29 0 -61 21 -61 16 0 21 8 23 38 3 32 0 37 -18 37
-11 0 -23 -6 -26 -14z"/>
<path d="M3760 1480 c0 -34 3 -41 18 -38 12 2 17 13 17 38 0 25 -5 36 -17 38
-15 3 -18 -4 -18 -38z"/>
<path d="M4607 1513 c-11 -21 -1 -68 16 -71 14 -3 17 4 17 37 0 29 -4 41 -14
41 -8 0 -17 -3 -19 -7z"/>
<path d="M4720 1480 c0 -34 3 -41 18 -38 12 2 17 13 17 38 0 25 -5 36 -17 38
-15 3 -18 -4 -18 -38z"/>
<path d="M4824 1507 c-9 -25 0 -62 16 -62 10 0 15 10 15 34 0 36 -21 54 -31
28z"/>
<path d="M5647 1513 c-11 -21 -1 -68 16 -71 14 -3 17 4 17 37 0 29 -4 41 -14
41 -8 0 -17 -3 -19 -7z"/>
<path d="M3120 1420 c0 -33 19 -40 40 -15 16 20 5 45 -20 45 -16 0 -20 -7 -20
-30z"/>
<path d="M640 1400 c0 -34 3 -41 18 -38 12 2 17 13 17 38 0 25 -5 36 -17 38
-15 3 -18 -4 -18 -38z"/>
<path d="M1704 1427 c-9 -25 0 -62 16 -62 10 0 15 10 15 34 0 36 -21 54 -31
28z"/>
<path d="M1920 1400 c0 -34 3 -41 18 -38 12 2 17 13 17 38 0 25 -5 36 -17 38
-15 3 -18 -4 -18 -38z"/>
<path d="M2127 1433 c-11 -21 -1 -68 16 -71 14 -3 17 4 17 37 0 29 -4 41 -14
41 -8 0 -17 -3 -19 -7z"/>
<path d="M2480 1400 c0 -34 3 -41 18 -38 12 2 17 13 17 38 0 25 -5 36 -17 38
-15 3 -18 -4 -18 -38z"/>
<path d="M3007 1433 c-11 -21 -1 -68 16 -71 14 -3 17 4 17 37 0 29 -4 41 -14
41 -8 0 -17 -3 -19 -7z"/>
<path d="M3360 1320 c0 -110 2 -121 18 -118 15 3 17 17 17 118 0 101 -2 115
-17 118 -16 3 -18 -8 -18 -118z"/>
<path d="M3680 1360 c0 -72 2 -81 18 -78 14 3 17 15 17 78 0 63 -3 75 -17 78
-16 3 -18 -6 -18 -78z"/>
<path d="M4207 1433 c-11 -21 -1 -68 16 -71 14 -3 17 4 17 37 0 29 -4 41 -14
41 -8 0 -17 -3 -19 -7z"/>
<path d="M400 1320 c0 -34 3 -41 18 -38 12 2 17 13 17 38 0 25 -5 36 -17 38
-15 3 -18 -4 -18 -38z"/>
<path d="M1807 1353 c-11 -21 -1 -68 16 -71 14 -3 17 4 17 37 0 29 -4 41 -14
41 -8 0 -17 -3 -19 -7z"/>
<path d="M2927 1353 c-11 -21 -1 -68 16 -71 14 -3 17 4 17 37 0 29 -4 41 -14
41 -8 0 -17 -3 -19 -7z"/>
<path d="M3247 1353 c-11 -21 -1 -68 16 -71 14 -3 17 4 17 37 0 29 -4 41 -14
41 -8 0 -17 -3 -19 -7z"/>
<path d="M3464 1347 c-9 -25 0 -62 16 -62 10 0 15 10 15 34 0 36 -21 54 -31
28z"/>
<path d="M3566 1351 c-3 -5 -5 -39 -5 -76 1 -57 4 -68 20 -72 15 -4 19 -15 19
-45 0 -32 3 -39 18 -36 25 5 26 69 1 75 -17 5 -19 16 -19 84 0 62 -3 79 -14
79 -8 0 -17 -4 -20 -9z"/>
<path d="M3784 1347 c-9 -25 0 -62 16 -62 10 0 15 10 15 34 0 36 -21 54 -31
28z"/>
<path d="M3009 1278 c0 -2 -3 -18 -6 -36 -3 -28 -1 -34 16 -39 19 -5 21 -13
21 -85 0 -70 2 -79 18 -76 14 3 17 16 20 76 2 67 1 74 -18 79 -16 4 -20 14
-20 44 0 28 -4 39 -15 39 -8 0 -15 -1 -16 -2z"/>
<path d="M3144 1267 c-3 -8 -4 -43 -2 -78 2 -49 7 -64 18 -64 12 0 15 15 15
74 0 51 -4 76 -12 78 -7 3 -15 -2 -19 -10z"/>
<path d="M4744 1267 c-9 -25 0 -62 16 -62 10 0 15 10 15 34 0 36 -21 54 -31
28z"/>
<path d="M4960 1240 c0 -34 3 -41 18 -38 12 2 17 13 17 38 0 25 -5 36 -17 38
-15 3 -18 -4 -18 -38z"/>
<path d="M2024 1187 c-9 -25 0 -62 16 -62 10 0 15 10 15 34 0 36 -21 54 -31
28z"/>
<path d="M2907 1194 c-9 -10 -9 -94 1 -94 4 0 17 -3 30 -6 18 -5 22 -2 22 15
0 11 -4 21 -9 21 -6 0 -11 14 -13 32 -3 31 -17 45 -31 32z"/>
<path d="M3244 1186 c-3 -7 -4 -60 -2 -117 3 -89 5 -104 21 -107 15 -3 17 8
17 117 0 102 -2 121 -15 121 -9 0 -18 -6 -21 -14z"/>
<path d="M3784 1187 c-9 -25 0 -62 16 -62 10 0 15 10 15 34 0 36 -21 54 -31
28z"/>
<path d="M3360 1080 c0 -34 3 -41 18 -38 12 2 17 13 17 38 0 25 -5 36 -17 38
-15 3 -18 -4 -18 -38z"/>
<path d="M3920 1040 c0 -72 2 -81 18 -78 14 3 17 15 17 78 0 63 -3 75 -17 78
-16 3 -18 -6 -18 -78z"/>
<path d="M4767 1113 c-11 -21 -1 -68 16 -71 14 -3 17 4 17 37 0 29 -4 41 -14
41 -8 0 -17 -3 -19 -7z"/>
<path d="M2910 1058 l-35 -11 26 -9 c22 -7 27 -15 25 -41 -1 -22 4 -32 17 -35
15 -3 17 4 17 52 0 31 -3 56 -7 55 -5 0 -24 -5 -43 -11z"/>
<path d="M127 1033 c-11 -21 -1 -68 16 -71 14 -3 17 4 17 37 0 29 -4 41 -14
41 -8 0 -17 -3 -19 -7z"/>
<path d="M1440 999 c0 -36 2 -40 23 -37 39 5 31 78 -9 78 -10 0 -14 -13 -14
-41z"/>
<path d="M960 920 c0 -34 3 -41 18 -38 12 2 17 13 17 38 0 25 -5 36 -17 38
-15 3 -18 -4 -18 -38z"/>
<path d="M1920 920 c0 -34 3 -41 18 -38 12 2 17 13 17 38 0 25 -5 36 -17 38
-15 3 -18 -4 -18 -38z"/>
<path d="M3384 947 c-9 -25 0 -62 16 -62 10 0 15 10 15 34 0 36 -21 54 -31 28z"/>
<path d="M3704 947 c-3 -8 -4 -43 -2 -78 2 -49 7 -64 18 -64 12 0 15 15 15 74
0 51 -4 76 -12 78 -7 3 -15 -2 -19 -10z"/>
<path d="M847 873 c-11 -21 -1 -68 16 -71 14 -3 17 4 17 37 0 29 -4 41 -14 41
-8 0 -17 -3 -19 -7z"/>
<path d="M1440 840 c0 -34 3 -41 18 -38 12 2 17 13 17 38 0 25 -5 36 -17 38
-15 3 -18 -4 -18 -38z"/>
<path d="M2024 867 c-9 -25 0 -62 16 -62 10 0 15 10 15 34 0 36 -21 54 -31 28z"/>
<path d="M2924 866 c-3 -7 -4 -60 -2 -117 3 -89 5 -104 21 -107 15 -3 17 8 17
117 0 102 -2 121 -15 121 -9 0 -18 -6 -21 -14z"/>
<path d="M3280 840 c0 -34 3 -41 18 -38 12 2 17 13 17 38 0 25 -5 36 -17 38
-15 3 -18 -4 -18 -38z"/>
<path d="M3487 873 c-11 -21 -1 -68 16 -71 14 -3 17 4 17 37 0 29 -4 41 -14
41 -8 0 -17 -3 -19 -7z"/>
<path d="M2264 787 c-9 -25 0 -62 16 -62 10 0 15 10 15 34 0 36 -21 54 -31 28z"/>
<path d="M2825 788 c-3 -8 -4 -61 -3 -119 2 -84 6 -104 18 -104 12 0 15 19 15
114 0 83 -3 115 -12 118 -7 3 -15 -2 -18 -9z"/>
<path d="M3040 760 c0 -34 3 -41 18 -38 12 2 17 13 17 38 0 25 -5 36 -17 38
-15 3 -18 -4 -18 -38z"/>
<path d="M3384 787 c-9 -25 0 -62 16 -62 10 0 15 10 15 34 0 36 -21 54 -31 28z"/>
<path d="M2367 713 c-11 -21 -1 -68 16 -71 14 -3 17 4 17 37 0 29 -4 41 -14
41 -8 0 -17 -3 -19 -7z"/>
<path d="M2720 680 c0 -34 3 -41 18 -38 12 2 17 13 17 38 0 25 -5 36 -17 38
-15 3 -18 -4 -18 -38z"/>
<path d="M3487 713 c-11 -21 -1 -68 16 -71 14 -3 17 4 17 37 0 29 -4 41 -14
41 -8 0 -17 -3 -19 -7z"/>
<path d="M3704 707 c-9 -25 0 -62 16 -62 10 0 15 10 15 34 0 36 -21 54 -31 28z"/>
<path d="M3167 633 c-11 -21 -1 -68 16 -71 14 -3 17 4 17 37 0 29 -4 41 -14
41 -8 0 -17 -3 -19 -7z"/>
<path d="M5040 560 c0 -72 2 -81 18 -78 14 3 17 15 17 78 0 63 -3 75 -17 78
-16 3 -18 -6 -18 -78z"/>
<path d="M2928 553 c-3 -4 -4 -21 -4 -38 1 -27 4 -30 36 -30 33 0 35 2 35 35
0 32 -3 35 -32 38 -17 2 -33 -1 -35 -5z"/>
<path d="M3280 520 c0 -34 3 -41 18 -38 12 2 17 13 17 38 0 25 -5 36 -17 38
-15 3 -18 -4 -18 -38z"/>
<path d="M3487 553 c-11 -21 -1 -68 16 -71 14 -3 17 4 17 37 0 29 -4 41 -14
41 -8 0 -17 -3 -19 -7z"/>
<path d="M2824 467 c-9 -25 0 -62 16 -62 10 0 15 10 15 34 0 36 -21 54 -31 28z"/>
<path d="M3404 467 c-2 -7 -3 -42 -2 -77 2 -52 6 -65 21 -68 15 -3 17 6 17 77
0 66 -3 81 -15 81 -9 0 -18 -6 -21 -13z"/>
<path d="M3727 473 c-11 -21 -1 -68 16 -71 14 -3 17 4 17 37 0 29 -4 41 -14
41 -8 0 -17 -3 -19 -7z"/>
<path d="M4504 467 c-9 -25 0 -62 16 -62 10 0 15 10 15 34 0 36 -21 54 -31 28z"/>
<path d="M2960 360 c0 -34 3 -41 18 -38 12 2 17 13 17 38 0 25 -5 36 -17 38
-15 3 -18 -4 -18 -38z"/>
<path d="M3280 360 c0 -34 3 -41 18 -38 12 2 17 13 17 38 0 25 -5 36 -17 38
-15 3 -18 -4 -18 -38z"/>
<path d="M3489 398 c0 -2 -3 -18 -6 -36 -3 -28 -1 -34 16 -39 17 -4 21 -13 21
-45 0 -32 3 -39 18 -36 14 3 17 15 17 78 l0 75 -32 3 c-18 2 -33 2 -34 0z"/>
<path d="M927 313 c-11 -21 -1 -68 16 -71 14 -3 17 4 17 37 0 29 -4 41 -14 41
-8 0 -17 -3 -19 -7z"/>
<path d="M2720 200 c0 -34 3 -41 18 -38 12 2 17 13 17 38 0 25 -5 36 -17 38
-15 3 -18 -4 -18 -38z"/>
<path d="M3183 157 c-5 -7 -10 -26 -12 -43 -3 -35 12 -46 47 -33 19 7 22 15
20 40 -4 35 -39 58 -55 36z"/>
<path d="M3760 120 c0 -34 3 -41 18 -38 12 2 17 13 17 38 0 25 -5 36 -17 38
-15 3 -18 -4 -18 -38z"/>
<path d="M2747 74 c-4 -4 -7 -22 -7 -41 0 -27 4 -33 21 -33 17 0 20 5 17 37
-3 35 -17 51 -31 37z"/>
<path d="M3067 74 c-4 -4 -7 -22 -7 -41 0 -27 4 -33 21 -33 17 0 20 5 17 37
-3 35 -17 51 -31 37z"/>
<path d="M3307 74 c-4 -4 -7 -22 -7 -41 0 -27 4 -33 21 -33 17 0 20 5 17 37
-3 35 -17 51 -31 37z"/>
</g>
</svg>
